<?xml version="1.0" standalone="no"?>
<!DOCTYPE svg PUBLIC "-//W3C//DTD SVG 1.1//EN" "http://www.w3.org/Graphics/SVG/1.1/DTD/svg11.dtd" >
<svg xmlns="http://www.w3.org/2000/svg" xmlns:xlink="http://www.w3.org/1999/xlink" version="1.1">
<metadata>
Created by FontForge 20170731 at Sat Sep  5 02:27:28 2020
 By Aleksey,,,
Copyright (c) 2017 by Alberto Romanos, Thom Niessink. All rights reserved.
</metadata>
<defs>
<font id="OdudoMono-Bold" horiz-adv-x="1146" >
  <font-face 
    font-family="Odudo Mono Bold"
    font-weight="700"
    font-stretch="normal"
    units-per-em="2048"
    panose-1="0 0 8 0 0 0 0 0 0 0"
    ascent="1638"
    descent="-410"
    x-height="1024"
    cap-height="1372"
    bbox="-1071 -535 2173 1950"
    underline-thickness="102"
    underline-position="-307"
    unicode-range="U+0020-FB02"
  />
<missing-glyph horiz-adv-x="921" 
d="M756 1434v-1844h-584v1844h584zM614 1311h-305v-62h121v-67h-123v-62h307v62h-122v67h122v62zM492 1073h-185v-192h307v63h-122v129zM430 1010v-66h-61v66h61zM614 831h-307v-61h123v-68h-123v-61h185v129h122v61zM614 721h-61v-123h-246v-61h307v184zM614 496h-184v-103
h62v41h61v-86h-184v148h-62v-209h307v209zM614 176h-307v-209h307v209zM553 117v-88h-184v88h184zM614 -74h-307v-61h129l-129 -86v-62h307v62h-188l129 86h59v61z" />
    <glyph glyph-name=".notdef" horiz-adv-x="921" 
d="M756 1434v-1844h-584v1844h584zM614 1311h-305v-62h121v-67h-123v-62h307v62h-122v67h122v62zM492 1073h-185v-192h307v63h-122v129zM430 1010v-66h-61v66h61zM614 831h-307v-61h123v-68h-123v-61h185v129h122v61zM614 721h-61v-123h-246v-61h307v184zM614 496h-184v-103
h62v41h61v-86h-184v148h-62v-209h307v209zM614 176h-307v-209h307v209zM553 117v-88h-184v88h184zM614 -74h-307v-61h129l-129 -86v-62h307v62h-188l129 86h59v61z" />
    <glyph glyph-name=".null" horiz-adv-x="0" 
 />
    <glyph glyph-name="nonmarkingreturn" horiz-adv-x="682" 
 />
    <glyph glyph-name="space" unicode=" " 
 />
    <glyph glyph-name="exclam" unicode="!" 
d="M410 440v932h327v-932h-327zM760 170q0 82 -52.5 134t-134.5 52t-134 -52t-52 -134t52 -134t134 -52t134.5 52t52.5 134z" />
    <glyph glyph-name="quotedbl" unicode="&#x22;" 
d="M184 1049v467h328v-467h-328zM635 1049v467h328v-467h-328z" />
    <glyph glyph-name="numbersign" unicode="#" 
d="M1075 788h-190l-27 -182h195l-41 -239h-191l-53 -367h-244l56 367h-125l-58 -367h-243l59 367h-182l47 239h174l31 182h-179l41 240h177l55 344h233l-53 -344h123l53 344h238l-51 -344h198zM616 606l29 182h-125l-28 -182h124z" />
    <glyph glyph-name="dollar" unicode="$" 
d="M1053 432q0 -157 -92.5 -271.5t-247.5 -156.5v-158h-291v150q-127 24 -227.5 85t-143.5 146l238 222q43 -68 117 -111t147 -43q67 0 109.5 33t42.5 84q0 42 -26.5 73.5t-70 50.5t-99 39t-114 37t-114 46.5t-99 66t-70 96.5t-26.5 137q0 149 85 258.5t228 151.5v168h291
v-164q100 -22 190 -72t146 -116l-190 -230q-61 57 -136 90t-147 33q-51 0 -85 -27.5t-34 -70.5q0 -31 21 -55t57 -39.5t82.5 -30t98 -30t102.5 -35t97.5 -50.5t82.5 -70.5t57 -100.5t21 -136z" />
    <glyph glyph-name="percent" unicode="%" 
d="M336 1389q132 0 215.5 -86.5t83.5 -221.5q0 -134 -83.5 -219.5t-215.5 -85.5t-215.5 85.5t-83.5 219.5q0 135 83.5 221.5t215.5 86.5zM336 1151q-51 0 -51 -70q0 -31 13.5 -50t37.5 -19t37.5 19t13.5 50q0 70 -51 70zM240 238l825 729l-152 172l-823 -729zM813 596
q132 0 215.5 -86t83.5 -221q0 -134 -83.5 -219.5t-215.5 -85.5t-215.5 85.5t-83.5 219.5q0 135 83.5 221t215.5 86zM813 358q-23 0 -37 -18.5t-14 -50.5q0 -31 14 -50.5t37 -19.5q51 0 51 70q0 69 -51 69z" />
    <glyph glyph-name="ampersand" unicode="&#x26;" 
d="M1124 881v-291h-96v-121q0 -235 -119.5 -360t-347.5 -125q-246 0 -388 122.5t-142 319.5q0 107 48.5 197.5t153.5 138.5q-63 44 -95 111.5t-32 142.5q0 159 128.5 266t304.5 107q131 0 245.5 -62t171.5 -156l-290 -147q-17 24 -47 38.5t-60 14.5q-44 0 -74 -29t-30 -69
q0 -41 30.5 -69.5t75.5 -28.5h563zM713 455v135h-160q-78 0 -125 -35t-47 -102q0 -70 49 -114t123 -44q67 0 113.5 44.5t46.5 115.5z" />
    <glyph glyph-name="quotesingle" unicode="'" 
d="M410 1049v467h327v-467h-327z" />
    <glyph glyph-name="parenleft" unicode="(" 
d="M754 -406q-218 233 -324 452t-106 468q0 251 109 469t337 451l236 -152q-99 -106 -165.5 -191.5t-118.5 -179.5t-76.5 -191t-24.5 -206q0 -211 92 -383.5t293 -384.5z" />
    <glyph glyph-name="parenright" unicode=")" 
d="M393 -406l-252 152q201 212 293 384.5t92 383.5q0 109 -24.5 206t-76.5 191t-118.5 179.5t-165.5 191.5l236 152q228 -233 337 -451t109 -469q0 -249 -106 -468t-324 -452z" />
    <glyph glyph-name="asterisk" unicode="*" 
d="M918 1122v-182h-125l90 -88l-127 -127l-90 88v-127h-181v127l-90 -88l-125 127l86 88h-125v182h125l-86 88l125 129l90 -90v125h181v-125l90 90l127 -129l-90 -88h125z" />
    <glyph glyph-name="plus" unicode="+" 
d="M1079 655v-280h-366v-375h-281v375h-366v280h366v369h281v-369h366z" />
    <glyph glyph-name="comma" unicode="," 
d="M586 -236l157 469h-319l-117 -469h279z" />
    <glyph glyph-name="hyphen" unicode="-" 
d="M928 455v319h-709v-319h709z" />
    <glyph glyph-name="period" unicode="." 
d="M760 170q0 82 -52.5 134t-134.5 52t-134 -52t-52 -134t52 -134t134 -52t134.5 52t52.5 134z" />
    <glyph glyph-name="slash" unicode="/" 
d="M164 0h264l555 1434h-266z" />
    <glyph glyph-name="zero" unicode="0" 
d="M573 -16q223 0 365.5 131.5t142.5 337.5v467q0 206 -142.5 337.5t-365.5 131.5t-365 -131.5t-142 -337.5v-467q0 -206 142 -337.5t365 -131.5zM393 899q0 78 50.5 128t129.5 50t130 -50t51 -128v-426q0 -78 -51 -128t-130 -50t-129.5 50t-50.5 128v426z" />
    <glyph glyph-name="one" unicode="1" 
d="M176 1083v289h582v-1081h274v-291h-876v291h274v792h-254z" />
    <glyph glyph-name="two" unicode="2" 
d="M133 0v268l459 506q47 54 75.5 106.5t28.5 88.5q0 46 -45 79t-114 33q-49 0 -107.5 -26t-101.5 -66l-215 176q68 98 187 161t237 63q208 0 341.5 -119.5t133.5 -300.5q0 -80 -47 -182.5t-127 -186.5l-301 -311h493v-289h-897z" />
    <glyph glyph-name="three" unicode="3" 
d="M864 766q95 -57 155 -150t60 -184q0 -198 -146.5 -323t-375.5 -125q-116 0 -208.5 30t-156 85.5t-104.5 126.5t-63 161l307 82q14 -81 71 -127.5t154 -46.5q76 0 124 44.5t48 115.5q0 67 -48.5 110t-123.5 43h-98v291h90q47 0 76.5 24t29.5 64t-30 65t-76 25
q-29 0 -58.5 -14.5t-46.5 -38.5l-249 143q57 97 156.5 159.5t197.5 62.5q198 0 326.5 -105.5t128.5 -269.5q0 -69 -39 -138t-101 -110z" />
    <glyph glyph-name="four" unicode="4" 
d="M1116 535v-291h-153v-244h-328v244h-582v291l654 837h256v-837h153zM406 535h229v290z" />
    <glyph glyph-name="five" unicode="5" 
d="M530 973q232 0 380.5 -138.5t148.5 -357.5q0 -218 -152.5 -355.5t-392.5 -137.5q-115 0 -242.5 62t-214.5 159l234 198q87 -108 223 -108q86 0 141.5 51t55.5 131q0 82 -56 133.5t-145 51.5q-74 0 -133 -52l-256 191l94 571h713v-287h-453l-29 -116q54 4 84 4z" />
    <glyph glyph-name="six" unicode="6" 
d="M649 946q205 -17 334 -150t129 -331q0 -212 -151 -346.5t-388 -134.5t-387.5 134.5t-150.5 346.5q0 61 17.5 127t43.5 106l453 691l287 -172zM573 295q85 0 138 47.5t53 122.5t-53.5 123.5t-137.5 48.5t-137 -48.5t-53 -123.5t52.5 -122.5t137.5 -47.5z" />
    <glyph glyph-name="seven" unicode="7" 
d="M274 0l426 1083h-608v289h965v-268l-434 -1104h-349z" />
    <glyph glyph-name="eight" unicode="8" 
d="M893 748q96 -60 153.5 -151t57.5 -175q0 -193 -149.5 -315.5t-381.5 -122.5t-381 122.5t-149 315.5q0 86 58 176.5t155 149.5q-69 50 -108 119t-39 132q0 171 130 280.5t334 109.5t334.5 -110t130.5 -280q0 -65 -38.5 -135.5t-106.5 -115.5zM573 1077q-51 0 -83.5 -28
t-32.5 -72q0 -43 32.5 -70.5t83.5 -27.5t84 27.5t33 70.5q0 44 -33 72t-84 28zM573 295q80 0 130.5 40.5t50.5 106.5t-50.5 107t-130.5 41t-130 -41t-50 -107t50 -106.5t130 -40.5z" />
    <glyph glyph-name="nine" unicode="9" 
d="M573 1389q236 0 387.5 -136t151.5 -348q0 -65 -16.5 -131.5t-42.5 -107.5l-445 -666h-389l283 420q-208 15 -337.5 149t-129.5 336q0 212 151 348t387 136zM573 727q84 0 137.5 50.5t53.5 127.5q0 75 -53.5 123.5t-137.5 48.5t-137 -48.5t-53 -123.5q0 -77 53 -127.5
t137 -50.5z" />
    <glyph glyph-name="colon" unicode=":" 
d="M760 854q0 82 -52.5 134t-134.5 52t-134 -52t-52 -134t52 -134t134 -52t134.5 52t52.5 134zM760 170q0 82 -52.5 134t-134.5 52t-134 -52t-52 -134t52 -134t134 -52t134.5 52t52.5 134z" />
    <glyph glyph-name="semicolon" unicode=";" 
d="M760 856q0 82 -52.5 134t-134.5 52t-134 -52t-52 -134t52 -134t134 -52t134.5 52t52.5 134zM586 -236l157 469h-319l-117 -469h279z" />
    <glyph glyph-name="less" unicode="&#x3c;" 
d="M942 -37v328l-375 221l375 219v328l-737 -434v-228z" />
    <glyph glyph-name="equal" unicode="=" 
d="M1061 602v281h-973v-281h973zM1061 260v283h-973v-283h973z" />
    <glyph glyph-name="greater" unicode="&#x3e;" 
d="M205 -37l737 434v228l-737 434v-328l375 -219l-375 -221v-328z" />
    <glyph glyph-name="question" unicode="?" 
d="M1012 924q0 126 -63 233t-171 169.5t-235 62.5q-141 0 -256.5 -77t-171.5 -208l309 -129q14 37 44.5 58t65.5 21t68 -12.5t54.5 -44t21.5 -71.5q0 -57 -39.5 -97.5t-93.5 -40.5h-168v-352h332v68q133 37 218 153.5t85 266.5zM731 170q0 82 -52 134t-134 52t-134.5 -52
t-52.5 -134t52.5 -134t134.5 -52t134 52t52 134z" />
    <glyph glyph-name="at" unicode="@" 
d="M575 1040q112 0 210.5 -40t170 -110.5t113 -171t41.5 -216.5q0 -160 -76.5 -255t-214.5 -95q-132 0 -190 100q-51 -21 -103 -21q-105 0 -170 76.5t-65 194.5t64.5 193t164.5 75q64 0 117 -33v21h129v-344q0 -33 17.5 -49.5t41.5 -16.5q68 0 68 137q0 71 -20 134.5
t-58 113.5t-98.5 79.5t-136.5 29.5q-146 0 -239 -97.5t-93 -242.5q0 -140 88 -229t227 -89q18 0 35.5 2t24.5 2l49 -196q-29 -8 -97 -8q-133 6 -237.5 50.5t-169 117t-98 162.5t-33.5 192q0 229 155 381.5t383 152.5zM545 412q27 0 43 25t16 65q0 39 -16 62.5t-43 23.5
q-28 0 -47 -24t-19 -62q0 -37 18 -63.5t48 -26.5z" />
    <glyph glyph-name="A" unicode="A" 
d="M793 0l-66 283h-307l-66 -283h-348l377 1372h381l375 -1372h-346zM664 563l-91 404l-90 -404h181z" />
    <glyph glyph-name="B" unicode="B" 
d="M866 723q93 -43 152 -131t59 -184q0 -180 -128.5 -294t-330.5 -114h-514v1372h455q202 0 330.5 -111.5t128.5 -285.5q0 -68 -43 -139.5t-109 -112.5zM432 1083v-256h107q57 0 94 36t37 93q0 55 -37 91t-94 36h-107zM598 291q57 0 94 37.5t37 97.5q0 57 -37 94t-94 37
h-166v-266h166z" />
    <glyph glyph-name="C" unicode="C" 
d="M575 -16q-234 0 -382 138.5t-148 358.5v410q0 220 148.5 359t381.5 139q210 0 352 -110.5t167 -289.5l-326 -80q-10 76 -63 122t-130 46q-89 0 -145.5 -57.5t-56.5 -149.5v-368q0 -92 56.5 -149.5t145.5 -57.5q84 0 140 51t63 137l326 -59q-12 -195 -159.5 -317.5
t-369.5 -122.5z" />
    <glyph glyph-name="D" unicode="D" 
d="M104 0v1372h431q258 0 421.5 -154t163.5 -397v-268q0 -244 -163.5 -398.5t-421.5 -154.5h-431zM432 291h80q125 0 203 78t78 204v228q0 125 -78.5 203.5t-202.5 78.5h-80v-792z" />
    <glyph glyph-name="E" unicode="E" 
d="M154 0v1372h882v-289h-555v-252h424v-280h-424v-260h563v-291h-890z" />
    <glyph glyph-name="F" unicode="F" 
d="M162 0v1372h872v-289h-545v-262h441v-280h-441v-541h-327z" />
    <glyph glyph-name="G" unicode="G" 
d="M543 827h555v-827h-281v111q-61 -59 -137.5 -93t-153.5 -34q-215 0 -352 138.5t-137 358.5v410q0 219 148 358.5t380 139.5q201 0 348 -113t172 -287l-325 -80q-10 74 -64.5 121t-128.5 47q-89 0 -145.5 -57.5t-56.5 -149.5v-368q0 -92 56.5 -149.5t145.5 -57.5
q90 0 146.5 57.5t56.5 149.5v35h-227v290z" />
    <glyph glyph-name="H" unicode="H" 
d="M121 0v1372h328v-541h249v541h328v-1372h-328v541h-249v-541h-328z" />
    <glyph glyph-name="I" unicode="I" 
d="M131 0v291h279v792h-258v289h843v-289h-258v-792h279v-291h-885z" />
    <glyph glyph-name="J" unicode="J" 
d="M174 0v291h285q45 0 73.5 28.5t28.5 73.5l2 690h-287v289h758v-289h-143v-710q0 -164 -115.5 -268.5t-296.5 -104.5h-305z" />
    <glyph glyph-name="K" unicode="K" 
d="M1104 1372l-418 -590l412 -782h-353l-249 516l-64 -90v-426h-328v1372h328v-465l320 465h352z" />
    <glyph glyph-name="L" unicode="L" 
d="M174 0v1372h328v-1081h540v-291h-868z" />
    <glyph glyph-name="M" unicode="M" 
d="M61 0v1372h316l196 -610l197 610h315v-1372h-307v737l-139 -385h-131l-139 385v-737h-308z" />
    <glyph glyph-name="N" unicode="N" 
d="M111 0v1372h292l326 -747v747h307v-1372h-293l-325 750v-750h-307z" />
    <glyph glyph-name="O" unicode="O" 
d="M573 1389q234 0 382.5 -139t148.5 -359v-410q0 -219 -148.5 -358t-382.5 -139t-382 138.5t-148 358.5v410q0 220 148.5 359t381.5 139zM573 1077q-89 0 -145.5 -57.5t-56.5 -149.5v-368q0 -92 56.5 -149.5t145.5 -57.5q90 0 146.5 57.5t56.5 149.5v368q0 92 -56.5 149.5
t-146.5 57.5z" />
    <glyph glyph-name="P" unicode="P" 
d="M100 1372h504q205 0 335 -119t130 -307q0 -187 -130 -306.5t-335 -119.5h-176v-520h-328v1372zM584 811q61 0 99 38t38 97q0 60 -38 98.5t-99 38.5h-156v-272h156z" />
    <glyph glyph-name="Q" unicode="Q" 
d="M1114 184l-209 -200l-59 61q-122 -61 -273 -61q-234 0 -382 138.5t-148 358.5v410q0 220 148.5 359t381.5 139q234 0 382.5 -139t148.5 -359v-410q0 -127 -53 -233zM573 295q19 0 27 2l-125 127l205 199l96 -97v344q0 92 -56.5 149.5t-146.5 57.5q-89 0 -145.5 -57.5
t-56.5 -149.5v-368q0 -92 56.5 -149.5t145.5 -57.5z" />
    <glyph glyph-name="R" unicode="R" 
d="M1106 0h-350l-240 498h-74v-498h-327v1372h510q212 0 345.5 -122t133.5 -314q0 -141 -74 -247.5t-203 -156.5zM442 1083v-295h162q66 0 109 41t43 107q0 64 -43 105.5t-109 41.5h-162z" />
    <glyph glyph-name="S" unicode="S" 
d="M51 227l238 222q43 -68 117 -111t147 -43q67 0 109.5 33t42.5 84q0 42 -26.5 73.5t-70 50.5t-99 39t-114 37t-114 46.5t-99 66t-70 96.5t-26.5 137q0 189 132 310t335 121q131 0 264 -57.5t209 -147.5l-190 -230q-61 57 -136 90t-147 33q-51 0 -85 -27.5t-34 -70.5
q0 -31 21 -55t57 -39.5t82.5 -30t98 -30t102.5 -35t97.5 -50.5t82.5 -70.5t57 -100.5t21 -136q0 -197 -140 -322.5t-360 -125.5q-163 0 -304 68t-198 175z" />
    <glyph glyph-name="T" unicode="T" 
d="M43 1083v289h1061v-289h-367v-1083h-327v1083h-367z" />
    <glyph glyph-name="U" unicode="U" 
d="M428 1372v-928q0 -66 40.5 -107.5t104.5 -41.5q65 0 105.5 41.5t40.5 107.5v928h328v-948q0 -193 -133.5 -316.5t-340.5 -123.5t-340 123.5t-133 316.5v948h328z" />
    <glyph glyph-name="V" unicode="V" 
d="M27 1372h354l192 -903l193 903h354l-356 -1372h-381z" />
    <glyph glyph-name="W" unicode="W" 
d="M23 1372h307l65 -856l78 508h201l78 -508l65 856h309l-133 -1372h-336l-84 741l-84 -741h-335z" />
    <glyph glyph-name="X" unicode="X" 
d="M1120 1372l-364 -686l364 -686h-352l-188 354l-189 -354h-352l364 686l-364 686h354l187 -352l186 352h354z" />
    <glyph glyph-name="Y" unicode="Y" 
d="M33 1372h356l184 -430l185 430h356l-377 -772v-600h-327v600z" />
    <glyph glyph-name="Z" unicode="Z" 
d="M78 1083v289h991v-268l-620 -813h638v-291h-1028v270l621 813h-602z" />
    <glyph glyph-name="bracketleft" unicode="[" 
d="M1026 -410v291h-399v1262h399v291h-690v-1844h690z" />
    <glyph glyph-name="backslash" unicode="\" 
d="M983 0l-553 1434h-266l555 -1434h264z" />
    <glyph glyph-name="bracketright" unicode="]" 
d="M121 -410h690v1844h-690v-291h399v-1262h-399v-291z" />
    <glyph glyph-name="asciicircum" unicode="^" 
d="M88 637h328l159 375l158 -375h328l-365 735h-243z" />
    <glyph glyph-name="underscore" unicode="_" 
d="M1098 -233v233h-1049v-233h1049z" />
    <glyph glyph-name="grave" unicode="`" horiz-adv-x="1228" 
d="M696 1145l115 221l-410 219l-125 -219z" />
    <glyph glyph-name="a" unicode="a" 
d="M784 1024h271v-1024h-269v63q-54 -37 -123 -58t-135 -21q-205 0 -336 148t-131 380t131 380t336 148q137 0 256 -71v55zM569 295q77 0 126.5 61t49.5 156t-49.5 156t-126.5 61t-126.5 -61t-49.5 -156t49.5 -156t126.5 -61z" />
    <glyph glyph-name="b" unicode="b" 
d="M618 1040q204 0 335.5 -148.5t131.5 -379.5t-131.5 -379.5t-335.5 -148.5q-66 0 -135 21t-123 58v-63h-268v1434h324v-451q86 57 202 57zM578 295q77 0 126.5 61t49.5 156t-49.5 156t-126.5 61t-127 -61t-50 -156t50 -156t127 -61z" />
    <glyph glyph-name="c" unicode="c" 
d="M633 -16q-221 0 -362.5 148t-141.5 380t141.5 380t364.5 148q108 0 213.5 -41.5t163.5 -107.5l-226 -240q-24 34 -64.5 56t-82.5 22q-78 0 -128 -61t-50 -156t50 -156t128 -61q51 0 98 30.5t74 77.5l238 -229q-62 -83 -178.5 -136.5t-237.5 -53.5z" />
    <glyph glyph-name="d" unicode="d" 
d="M731 1434h324v-1434h-269v63q-54 -37 -123 -58t-135 -21q-204 0 -335.5 148.5t-131.5 379.5t131.5 379.5t335.5 148.5q117 0 203 -57v451zM569 295q77 0 126.5 61t49.5 156t-49.5 156t-126.5 61t-126.5 -61t-49.5 -156t49.5 -156t126.5 -61z" />
    <glyph glyph-name="e" unicode="e" 
d="M604 289q58 0 127 24.5t121 61.5l192 -232q-87 -69 -211.5 -114t-234.5 -45q-232 0 -380 148t-148 380t142.5 380t365.5 148q108 0 197 -36t158.5 -109.5t107.5 -197.5t38 -289h-657q25 -56 72.5 -87.5t109.5 -31.5zM578 778q-49 0 -88.5 -32.5t-61.5 -88.5h295
q-10 54 -51 87.5t-94 33.5z" />
    <glyph glyph-name="f" unicode="f" 
d="M791 1143q-43 0 -72 -27.5t-29 -71.5v-20h326v-291h-326l-2 -442h215v-291h-713v291h175v442h-267v291h267v41q0 163 113 266t292 103h266v-291h-245z" />
    <glyph glyph-name="g" unicode="g" 
d="M786 1028h269v-1030q0 -186 -128 -305t-329 -119q-74 0 -168 32t-164 81l125 262q39 -28 91 -46t96 -18q68 0 110.5 36.5t42.5 96.5v27q-86 -57 -203 -57q-204 0 -335.5 148.5t-131.5 379.5t131.5 379.5t335.5 148.5q66 0 135 -21t123 -58v63zM569 299q77 0 126.5 61
t49.5 156t-49.5 156t-126.5 61t-126.5 -61t-49.5 -156t49.5 -156t126.5 -61z" />
    <glyph glyph-name="h" unicode="h" 
d="M618 1040q183 0 299.5 -121t116.5 -311v-608h-321v588q0 62 -39.5 101.5t-100.5 39.5t-100 -39.5t-39 -101.5v-588h-321v1434h321v-437q94 43 184 43z" />
    <glyph glyph-name="i" unicode="i" 
d="M614 1161q-83 0 -135.5 52t-52.5 135t52.5 134.5t135.5 51.5q84 0 136.5 -51.5t52.5 -134.5t-53 -135t-136 -52zM158 0v291h295v442h-275v291h598v-733h234v-291h-852z" />
    <glyph glyph-name="j" unicode="j" 
d="M727 1161q-82 0 -135 52t-53 135t53 134.5t135 51.5q83 0 135.5 -51.5t52.5 -134.5t-52.5 -135t-135.5 -52zM90 -145q475 105 475 567v311h-315v291h639v-625q0 -151 -37 -273t-117.5 -227.5t-214 -186.5t-321.5 -138z" />
    <glyph glyph-name="k" unicode="k" 
d="M1102 0h-391l-181 317l-75 -96v-221h-324v1434h324v-752l258 342h368l-344 -440z" />
    <glyph glyph-name="l" unicode="l" 
d="M100 1143v291h514v-1022q0 -51 35 -86t86 -35h254v-291h-274q-188 0 -306 109t-118 282v752h-191z" />
    <glyph glyph-name="m" unicode="m" 
d="M817 1040q123 0 195.5 -80t72.5 -204v-756h-286v727q0 21 -11.5 34t-31.5 13q-41 0 -41 -47v-727h-283v727q0 47 -41 47q-20 0 -31.5 -13t-11.5 -34v-727h-287v1024h187v-41q65 57 174 57q129 0 209 -71q71 71 186 71z" />
    <glyph glyph-name="n" unicode="n" 
d="M618 1040q183 0 299.5 -119.5t116.5 -308.5v-612h-321v592q0 61 -39.5 99t-100.5 38t-100 -38t-39 -99v-592h-321v1024h254v-61q121 77 251 77z" />
    <glyph glyph-name="o" unicode="o" 
d="M573 1040q223 0 365.5 -148t142.5 -380t-142.5 -380t-365.5 -148t-365 148t-142 380t142 380t365 148zM573 729q-78 0 -127 -61t-49 -156t49 -156t127 -61t127.5 61t49.5 156t-49.5 156t-127.5 61z" />
    <glyph glyph-name="p" unicode="p" 
d="M618 1040q204 0 335.5 -148.5t131.5 -379.5t-131.5 -379.5t-335.5 -148.5q-116 0 -202 57v-451h-324v1434h268v-63q54 37 123 58t135 21zM578 295q77 0 126.5 61t49.5 156t-49.5 156t-126.5 61t-127 -61t-50 -156t50 -156t127 -61z" />
    <glyph glyph-name="q" unicode="q" 
d="M786 1024h269v-1434h-324v451q-86 -57 -203 -57q-204 0 -335.5 148.5t-131.5 379.5t131.5 379.5t335.5 148.5q66 0 135 -21t123 -58v63zM569 295q77 0 126.5 61t49.5 156t-49.5 156t-126.5 61t-126.5 -61t-49.5 -156t49.5 -156t126.5 -61z" />
    <glyph glyph-name="r" unicode="r" 
d="M760 733q-54 0 -88.5 -33.5t-34.5 -87.5v-321h170v-291h-647v291h153v442h-153v291h407v-61q97 61 213 61h279v-291h-299z" />
    <glyph glyph-name="s" unicode="s" 
d="M100 158l199 178q52 -50 111 -72t139 -22q67 0 109 23t42 59q0 29 -25 46.5t-65.5 24.5t-92.5 15t-106.5 15.5t-106.5 27.5t-92.5 49.5t-65.5 84t-25 128.5q0 143 126 234t322 91q114 0 228 -40.5t180 -104.5l-184 -197q-57 44 -108.5 64t-115.5 20q-52 0 -84 -18.5
t-32 -48.5q0 -25 25 -40.5t65.5 -22t92.5 -14t106.5 -15.5t106.5 -29.5t92.5 -52t65.5 -86.5t25 -131q0 -149 -135.5 -244.5t-347.5 -95.5q-138 0 -264.5 49t-184.5 125z" />
    <glyph glyph-name="t" unicode="t" 
d="M1008 291v-291h-271q-179 0 -293 104t-114 267v362h-269v291h269v305h323v-305h346v-291h-346v-342q0 -44 30 -72t75 -28h250z" />
    <glyph glyph-name="u" unicode="u" 
d="M117 1024h321v-596q0 -58 38 -95.5t97 -37.5t97.5 37.5t38.5 95.5v596h321v-616q0 -186 -128 -305t-329 -119t-328.5 119t-127.5 305v616z" />
    <glyph glyph-name="v" unicode="v" 
d="M27 1024h335l211 -616l211 616h336l-395 -1024h-303z" />
    <glyph glyph-name="w" unicode="w" 
d="M35 1024h293l71 -655l78 352h193l78 -352l73 655h291l-125 -1024h-301l-113 471l-112 -471h-301z" />
    <glyph glyph-name="x" unicode="x" 
d="M1071 1024l-319 -510l319 -514h-373l-133 215l-135 -215h-373l320 514l-320 510h377l131 -209l129 209h377z" />
    <glyph glyph-name="y" unicode="y" 
d="M35 1024h336l202 -543l201 543h344l-416 -993q-85 -205 -224 -318t-318 -139l-101 291q115 11 207 85t131 195z" />
    <glyph glyph-name="z" unicode="z" 
d="M119 743v281h905v-258l-508 -475h533v-291h-951v270l510 473h-489z" />
    <glyph glyph-name="braceleft" unicode="{" 
d="M1026 -119v-291h-201q-163 0 -279 116t-116 280v274q0 46 -31 77.5t-77 31.5h-160v290h160q46 0 77 32t31 79v268q0 164 116 280t279 116h201v-291h-201q-42 0 -73 -32t-31 -77v-264q0 -141 -94 -256q94 -115 94 -254v-274q0 -42 31.5 -73.5t72.5 -31.5h201z" />
    <glyph glyph-name="bar" unicode="|" 
d="M449 -410h249v1844h-249v-1844z" />
    <glyph glyph-name="braceright" unicode="}" 
d="M121 -119h201q42 0 73 31.5t31 73.5v274q0 139 94 254q-94 115 -94 256v264q0 45 -31 77t-73 32h-201v291h201q163 0 279 -116t116 -280v-268q0 -47 31 -79t77 -32h160v-290h-160q-46 0 -77 -31.5t-31 -77.5v-274q0 -164 -116 -280t-279 -116h-201v291z" />
    <glyph glyph-name="asciitilde" unicode="~" 
d="M465 371q16 28 49 48.5t68 20.5q23 0 50.5 -13t67 -26.5t91.5 -13.5q75 0 145 37t141 143l-207 125q-49 -76 -120 -76q-34 0 -93.5 26t-111.5 26q-78 0 -149 -43t-120 -123z" />
    <glyph glyph-name="exclamdown" unicode="&#xa1;" 
d="M760 1202q0 82 -52.5 134.5t-134.5 52.5t-134 -52.5t-52 -134.5t52 -134t134 -52t134.5 52t52.5 134zM410 932h327v-932h-327v932z" />
    <glyph glyph-name="cent" unicode="&#xa2;" 
d="M1049 174q-53 -71 -145 -121t-195 -63v-226h-164v226q-187 29 -301.5 172.5t-114.5 349.5t114.5 348.5t301.5 173.5v209h164v-209q92 -12 173 -50t130 -93l-226 -240q-28 42 -77 64v-406q67 31 102 94zM461 512q0 -127 84 -188v376q-84 -61 -84 -188z" />
    <glyph glyph-name="sterling" unicode="&#xa3;" 
d="M805 487h311v-104q0 -184 -118 -283.5t-302 -99.5h-581v291h227v69q0 66 -13.5 117t-47.5 109h-224v250h86q-20 62 -20 127q0 187 122.5 306.5t313.5 119.5q298 0 467 -324l-246 -150q-27 46 -45.5 72t-45 56t-56.5 43.5t-64 13.5q-55 0 -93 -36t-38 -95q0 -62 43 -133
h463v-250h-319q34 -107 34 -221v-74h37q53 0 81 27.5t28 64.5v104z" />
    <glyph glyph-name="currency" unicode="&#xa4;" 
d="M1065 532q0 -136 -70 -251l109 -109l-162 -160l-104 105q-123 -76 -265 -76q-138 0 -264 76l-104 -105l-162 160l109 109q-70 115 -70 251q0 135 65 244l-104 105l162 159l98 -98q125 82 270 82q149 0 271 -82l98 98l162 -159l-103 -105q64 -112 64 -244zM571 295
q95 0 165.5 71t70.5 166t-70.5 166.5t-165.5 71.5q-97 0 -165 -70t-68 -168t68 -167.5t165 -69.5z" />
    <glyph glyph-name="yen" unicode="&#xa5;" 
d="M1114 1372l-260 -534h246v-248h-363v-58h363v-247h-363v-285h-327v285h-361v247h361v58h-361v248h244l-260 534h356l184 -430l185 430h356z" />
    <glyph glyph-name="brokenbar" unicode="&#xa6;" 
d="M698 647v787h-249v-787h249zM449 399v-809h249v809h-249z" />
    <glyph glyph-name="section" unicode="&#xa7;" 
d="M885 244q110 -107 110 -273q0 -181 -113 -293t-298 -112q-246 0 -473 205l163 272q60 -55 138.5 -95t140.5 -40q50 0 76 28.5t26 71.5q0 40 -26 74t-67 59.5t-90.5 52t-99.5 59.5t-91 73.5t-67 103t-26 139.5q0 188 142 316q-70 101 -70 229q0 119 63 217.5t164.5 151.5
t214.5 51q90 -1 171.5 -38.5t138.5 -102.5l-150 -248q-77 69 -162 69q-51 0 -89 -29t-38 -75q0 -36 26.5 -64.5t69.5 -50.5t94.5 -44.5t103 -53t94.5 -68t69.5 -98t26.5 -135.5q0 -106 -46.5 -188.5t-125.5 -163.5zM659 434q38 22 63.5 61.5t25.5 79.5q0 45 -32.5 79
t-84.5 34q-51 0 -85 -33.5t-34 -76.5q0 -45 38.5 -83t108.5 -61z" />
    <glyph glyph-name="dieresis" unicode="&#xa8;" horiz-adv-x="1228" 
d="M549 1311q0 58 -40.5 99.5t-98.5 41.5t-99 -42t-41 -99q0 -59 41 -100.5t99 -41.5t98.5 41.5t40.5 100.5zM879 1311q0 58 -41.5 99.5t-100.5 41.5q-57 0 -97 -42t-40 -99q0 -59 40 -100.5t97 -41.5q60 0 101 41.5t41 100.5z" />
    <glyph glyph-name="copyright" unicode="&#xa9;" 
d="M575 -12q-144 0 -265.5 70.5t-192 192t-70.5 265.5q0 142 70.5 263t192 191t265.5 70q141 0 262 -70t192 -191t71 -263q0 -144 -71 -265.5t-192 -192t-262 -70.5zM575 178q140 0 237 98t97 240t-96.5 238t-237.5 96q-142 0 -239.5 -96.5t-97.5 -237.5t98 -239.5
t239 -98.5zM565 221q67 0 132.5 30.5t99.5 76.5l-142 133q-12 -25 -36 -40t-50 -15q-38 0 -63 29.5t-25 76.5q0 46 25 75t63 29q50 0 74 -38l133 141q-32 36 -91 59t-118 23q-124 0 -202 -80.5t-78 -208.5q0 -129 77.5 -210t200.5 -81z" />
    <glyph glyph-name="guillemotleft" unicode="&#xab;" 
d="M655 266l-239 252l237 250l-204 188l-422 -436l424 -448zM1124 266l-241 252l239 250l-204 188l-422 -436l424 -448z" />
    <glyph glyph-name="logicalnot" unicode="&#xac;" 
d="M758 246h319v669h-1026v-319h707v-350z" />
    <glyph glyph-name="registered" unicode="&#xae;" 
d="M575 1040q141 0 262 -70t192 -191t71 -263q0 -144 -71 -265.5t-192 -192t-262 -70.5q-144 0 -265.5 70.5t-192 192t-70.5 265.5q0 142 70.5 263t192 191t265.5 70zM575 178q140 0 237 98t97 240t-96.5 238t-237.5 96q-142 0 -239.5 -96.5t-97.5 -237.5t98 -239.5
t239 -98.5zM766 604q0 -47 -24 -83.5t-66 -57.5l84 -187h-146l-67 166h-8v-166h-142v492h189q78 0 129 -46t51 -118zM539 645v-80h36q19 0 30 11t11 28q0 18 -11.5 29.5t-29.5 11.5h-36z" />
    <glyph glyph-name="macron" unicode="&#xaf;" horiz-adv-x="1228" 
d="M846 1169v246h-545v-246h545z" />
    <glyph glyph-name="degree" unicode="&#xb0;" 
d="M575 1389q121 0 207 -85.5t86 -205.5q0 -123 -85.5 -208t-207.5 -85q-123 0 -208.5 85t-85.5 208q0 120 85.5 205.5t208.5 85.5zM575 1186q-36 0 -63 -27t-27 -61q0 -35 26.5 -61.5t63.5 -26.5q34 0 60.5 26.5t26.5 61.5q0 34 -26.5 61t-60.5 27z" />
    <glyph glyph-name="plusminus" unicode="&#xb1;" 
d="M1069 928v-285h-354v-307h-285v307h-354v285h354v282h285v-282h354zM1069 0v285h-993v-285h993z" />
    <glyph glyph-name="acute" unicode="&#xb4;" horiz-adv-x="1228" 
d="M451 1145l419 221l-125 219l-409 -219z" />
    <glyph glyph-name="paragraph" unicode="&#xb6;" 
d="M1047 1372v-1782h-248v1571h-127v-1571h-250v877q-161 28 -269 155.5t-108 292.5q0 121 61 227t162 168t215 62h564z" />
    <glyph glyph-name="periodcentered" unicode="&#xb7;" 
d="M760 526q0 82 -52.5 134.5t-134.5 52.5t-134 -52.5t-52 -134.5t52 -134t134 -52t134.5 52t52.5 134z" />
    <glyph glyph-name="cedilla" unicode="&#xb8;" horiz-adv-x="1228" 
d="M573 -514q-95 0 -169 65.5t-74 169.5h180q0 -18 18.5 -35.5t42.5 -17.5q25 0 43.5 20t18.5 46t-18 43.5t-44 17.5h-92v232h185v-66q68 -27 110.5 -89.5t42.5 -139.5q0 -101 -72 -173.5t-172 -72.5z" />
    <glyph glyph-name="guillemotright" unicode="&#xbb;" 
d="M23 266l204 -194l424 448l-422 436l-204 -188l239 -250zM492 266l204 -194l424 448l-422 436l-204 -188l237 -250z" />
    <glyph glyph-name="questiondown" unicode="&#xbf;" 
d="M416 1202q0 -82 52 -134t134 -52t134 52t52 134t-52 134.5t-134 52.5t-134 -52.5t-52 -134.5zM135 449q0 -126 63 -233t171 -169.5t235 -62.5q141 0 257 77t171 207l-309 129q-14 -37 -44.5 -58t-65.5 -21t-68 12.5t-54.5 44t-21.5 71.5q0 57 39.5 97.5t93.5 40.5h168
v354h-332v-70q-133 -35 -218 -152t-85 -267z" />
    <glyph glyph-name="Agrave" unicode="&#xc0;" 
d="M780 1669l-114 -221l-420 221l125 219zM793 0l-66 283h-307l-66 -283h-348l377 1372h381l375 -1372h-346zM664 563l-91 404l-90 -404h181z" />
    <glyph glyph-name="Aacute" unicode="&#xc1;" 
d="M901 1669l-420 -221l-114 221l409 219zM793 0l-66 283h-307l-66 -283h-348l377 1372h381l375 -1372h-346zM664 563l-91 404l-90 -404h181z" />
    <glyph glyph-name="Acircumflex" unicode="&#xc2;" 
d="M567 1556l-75 -86h-291l260 308h221l260 -308h-309zM793 0l-66 283h-307l-66 -283h-348l377 1372h381l375 -1372h-346zM664 563l-91 404l-90 -404h181z" />
    <glyph glyph-name="Atilde" unicode="&#xc3;" 
d="M477 1540q-35 0 -68 -21t-49 -49l-188 132q49 80 119.5 122.5t148.5 42.5q52 0 111.5 -25.5t93.5 -25.5q72 0 121 76l207 -125q-71 -106 -141.5 -143t-145.5 -37q-52 0 -91.5 13.5t-67 26.5t-50.5 13zM793 0l-66 283h-307l-66 -283h-348l377 1372h381l375 -1372h-346z
M664 563l-91 404l-90 -404h181z" />
    <glyph glyph-name="Adieresis" unicode="&#xc4;" 
d="M408 1470q-58 0 -99 41.5t-41 100.5q0 57 41 99t99 42t98.5 -41.5t40.5 -99.5q0 -59 -40.5 -100.5t-98.5 -41.5zM735 1470q-57 0 -97 41.5t-40 100.5q0 57 40 99t97 42q59 0 100.5 -41.5t41.5 -99.5q0 -59 -41 -100.5t-101 -41.5zM793 0l-66 283h-307l-66 -283h-348
l377 1372h381l375 -1372h-346zM664 563l-91 404l-90 -404h181z" />
    <glyph glyph-name="Aring" unicode="&#xc5;" 
d="M573 1470q-95 0 -163 68.5t-68 163.5q0 98 67.5 165.5t163.5 67.5q97 0 164.5 -67.5t67.5 -165.5q0 -96 -68 -164t-164 -68zM573 1772q-28 0 -47.5 -20.5t-19.5 -49.5q0 -26 20 -46t47 -20q29 0 49.5 19.5t20.5 46.5q0 29 -20.5 49.5t-49.5 20.5zM793 0l-66 283h-307
l-66 -283h-348l377 1372h381l375 -1372h-346zM664 563l-91 404l-90 -404h181z" />
    <glyph glyph-name="AE" unicode="&#xc6;" 
d="M864 291h264v-291h-553v283h-167l-66 -283h-332l402 1372h708v-289h-256v-252h223v-280h-223v-260zM473 559h102v442z" />
    <glyph glyph-name="Ccedilla" unicode="&#xc7;" 
d="M1104 424q-10 -174 -131 -292.5t-309 -141.5v-29q68 -27 110.5 -89.5t42.5 -139.5q0 -101 -72 -173.5t-172 -72.5q-95 0 -169 65.5t-74 169.5h180q0 -18 18.5 -35.5t42.5 -17.5q25 0 43.5 20t18.5 46t-18 43.5t-44 17.5h-92v195q-196 29 -315 162.5t-119 328.5v410
q0 220 148.5 359t381.5 139q210 0 352 -110.5t167 -289.5l-326 -80q-10 76 -63 122t-130 46q-89 0 -145.5 -57.5t-56.5 -149.5v-368q0 -92 56.5 -149.5t145.5 -57.5q84 0 140 51t63 137z" />
    <glyph glyph-name="Egrave" unicode="&#xc8;" 
d="M678 1448l115 221l-410 219l-125 -219zM154 0v1372h882v-289h-555v-252h424v-280h-424v-260h563v-291h-890z" />
    <glyph glyph-name="Eacute" unicode="&#xc9;" 
d="M494 1448l419 221l-125 219l-409 -219zM154 0v1372h882v-289h-555v-252h424v-280h-424v-260h563v-291h-890z" />
    <glyph glyph-name="Ecircumflex" unicode="&#xca;" 
d="M954 1470l-260 308h-221l-260 -308h291l76 86l65 -86h309zM154 0v1372h882v-289h-555v-252h424v-280h-424v-260h563v-291h-890z" />
    <glyph glyph-name="Edieresis" unicode="&#xcb;" 
d="M559 1612q0 58 -40.5 99.5t-98.5 41.5t-98.5 -41.5t-40.5 -99.5q0 -59 40.5 -100.5t98.5 -41.5t98.5 41.5t40.5 100.5zM889 1612q0 58 -41 99.5t-100 41.5q-57 0 -97.5 -42t-40.5 -99q0 -59 40.5 -100.5t97.5 -41.5q60 0 100.5 41.5t40.5 100.5zM154 0v1372h882v-289
h-555v-252h424v-280h-424v-260h563v-291h-890z" />
    <glyph glyph-name="Igrave" unicode="&#xcc;" 
d="M666 1448l114 221l-409 219l-125 -219zM131 0v291h279v792h-258v289h843v-289h-258v-792h279v-291h-885z" />
    <glyph glyph-name="Iacute" unicode="&#xcd;" 
d="M481 1448l420 221l-125 219l-409 -219zM131 0v291h279v792h-258v289h843v-289h-258v-792h279v-291h-885z" />
    <glyph glyph-name="Icircumflex" unicode="&#xce;" 
d="M942 1470l-260 308h-221l-260 -308h291l75 86l66 -86h309zM131 0v291h279v792h-258v289h843v-289h-258v-792h279v-291h-885z" />
    <glyph glyph-name="Idieresis" unicode="&#xcf;" 
d="M547 1612q0 58 -40.5 99.5t-98.5 41.5t-99 -42t-41 -99q0 -59 41 -100.5t99 -41.5t98.5 41.5t40.5 100.5zM877 1612q0 58 -41.5 99.5t-100.5 41.5q-57 0 -97 -42t-40 -99q0 -59 40 -100.5t97 -41.5q60 0 101 41.5t41 100.5zM131 0v291h279v792h-258v289h843v-289h-258
v-792h279v-291h-885z" />
    <glyph glyph-name="Eth" unicode="&#xd0;" 
d="M535 1372q258 0 421.5 -154t163.5 -397v-268q0 -244 -163.5 -398.5t-421.5 -154.5h-431v532h-65v289h65v551h431zM793 573v228q0 125 -78.5 203.5t-202.5 78.5h-80v-262h158v-289h-158v-241h80q125 0 203 78t78 204z" />
    <glyph glyph-name="Ntilde" unicode="&#xd1;" 
d="M360 1470q16 28 49 49t68 21q23 0 50.5 -13t67 -26.5t91.5 -13.5q75 0 145.5 37t141.5 143l-207 125q-49 -76 -121 -76q-34 0 -93.5 25.5t-111.5 25.5q-78 0 -148.5 -42.5t-119.5 -122.5zM111 0v1372h292l326 -747v747h307v-1372h-293l-325 750v-750h-307z" />
    <glyph glyph-name="Ograve" unicode="&#xd2;" 
d="M666 1448l114 221l-409 219l-125 -219zM573 1389q234 0 382.5 -139t148.5 -359v-410q0 -219 -148.5 -358t-382.5 -139t-382 138.5t-148 358.5v410q0 220 148.5 359t381.5 139zM573 1077q-89 0 -145.5 -57.5t-56.5 -149.5v-368q0 -92 56.5 -149.5t145.5 -57.5
q90 0 146.5 57.5t56.5 149.5v368q0 92 -56.5 149.5t-146.5 57.5z" />
    <glyph glyph-name="Oacute" unicode="&#xd3;" 
d="M481 1448l420 221l-125 219l-409 -219zM573 1389q234 0 382.5 -139t148.5 -359v-410q0 -219 -148.5 -358t-382.5 -139t-382 138.5t-148 358.5v410q0 220 148.5 359t381.5 139zM573 1077q-89 0 -145.5 -57.5t-56.5 -149.5v-368q0 -92 56.5 -149.5t145.5 -57.5
q90 0 146.5 57.5t56.5 149.5v368q0 92 -56.5 149.5t-146.5 57.5z" />
    <glyph glyph-name="Ocircumflex" unicode="&#xd4;" 
d="M942 1470l-260 308h-221l-260 -308h291l75 86l66 -86h309zM573 1389q234 0 382.5 -139t148.5 -359v-410q0 -219 -148.5 -358t-382.5 -139t-382 138.5t-148 358.5v410q0 220 148.5 359t381.5 139zM573 1077q-89 0 -145.5 -57.5t-56.5 -149.5v-368q0 -92 56.5 -149.5
t145.5 -57.5q90 0 146.5 57.5t56.5 149.5v368q0 92 -56.5 149.5t-146.5 57.5z" />
    <glyph glyph-name="Otilde" unicode="&#xd5;" 
d="M360 1470q16 28 49 49t68 21q23 0 50.5 -13t67 -26.5t91.5 -13.5q75 0 145.5 37t141.5 143l-207 125q-49 -76 -121 -76q-34 0 -93.5 25.5t-111.5 25.5q-78 0 -148.5 -42.5t-119.5 -122.5zM573 1389q234 0 382.5 -139t148.5 -359v-410q0 -219 -148.5 -358t-382.5 -139
t-382 138.5t-148 358.5v410q0 220 148.5 359t381.5 139zM573 1077q-89 0 -145.5 -57.5t-56.5 -149.5v-368q0 -92 56.5 -149.5t145.5 -57.5q90 0 146.5 57.5t56.5 149.5v368q0 92 -56.5 149.5t-146.5 57.5z" />
    <glyph glyph-name="Odieresis" unicode="&#xd6;" 
d="M547 1612q0 58 -40.5 99.5t-98.5 41.5t-99 -42t-41 -99q0 -59 41 -100.5t99 -41.5t98.5 41.5t40.5 100.5zM877 1612q0 58 -41.5 99.5t-100.5 41.5q-57 0 -97 -42t-40 -99q0 -59 40 -100.5t97 -41.5q60 0 101 41.5t41 100.5zM573 1389q234 0 382.5 -139t148.5 -359v-410
q0 -219 -148.5 -358t-382.5 -139t-382 138.5t-148 358.5v410q0 220 148.5 359t381.5 139zM573 1077q-89 0 -145.5 -57.5t-56.5 -149.5v-368q0 -92 56.5 -149.5t145.5 -57.5q90 0 146.5 57.5t56.5 149.5v368q0 92 -56.5 149.5t-146.5 57.5z" />
    <glyph glyph-name="multiply" unicode="&#xd7;" 
d="M1065 231l-199 -200l-286 291l-297 -299l-199 198l297 297l-287 289l197 197l289 -287l278 278l199 -198l-281 -279z" />
    <glyph glyph-name="Oslash" unicode="&#xd8;" 
d="M989 1214q115 -131 115 -323v-410q0 -219 -148.5 -358t-382.5 -139q-166 0 -290 71l-33 -55h-182l94 154q-119 135 -119 327v410q0 220 148.5 359t381.5 139q167 0 297 -76l35 59h180zM371 502v-6l329 540q-53 41 -127 41q-89 0 -145.5 -57.5t-56.5 -149.5v-368zM573 295
q90 0 146.5 57.5t56.5 149.5v362l-323 -532q49 -37 120 -37z" />
    <glyph glyph-name="Ugrave" unicode="&#xd9;" 
d="M666 1448l114 221l-409 219l-125 -219zM428 1372v-928q0 -66 40.5 -107.5t104.5 -41.5q65 0 105.5 41.5t40.5 107.5v928h328v-948q0 -193 -133.5 -316.5t-340.5 -123.5t-340 123.5t-133 316.5v948h328z" />
    <glyph glyph-name="Uacute" unicode="&#xda;" 
d="M481 1448l420 221l-125 219l-409 -219zM428 1372v-928q0 -66 40.5 -107.5t104.5 -41.5q65 0 105.5 41.5t40.5 107.5v928h328v-948q0 -193 -133.5 -316.5t-340.5 -123.5t-340 123.5t-133 316.5v948h328z" />
    <glyph glyph-name="Ucircumflex" unicode="&#xdb;" 
d="M942 1470l-260 308h-221l-260 -308h291l75 86l66 -86h309zM428 1372v-928q0 -66 40.5 -107.5t104.5 -41.5q65 0 105.5 41.5t40.5 107.5v928h328v-948q0 -193 -133.5 -316.5t-340.5 -123.5t-340 123.5t-133 316.5v948h328z" />
    <glyph glyph-name="Udieresis" unicode="&#xdc;" 
d="M547 1612q0 58 -40.5 99.5t-98.5 41.5t-99 -42t-41 -99q0 -59 41 -100.5t99 -41.5t98.5 41.5t40.5 100.5zM877 1612q0 58 -41.5 99.5t-100.5 41.5q-57 0 -97 -42t-40 -99q0 -59 40 -100.5t97 -41.5q60 0 101 41.5t41 100.5zM428 1372v-928q0 -66 40.5 -107.5t104.5 -41.5
q65 0 105.5 41.5t40.5 107.5v928h328v-948q0 -193 -133.5 -316.5t-340.5 -123.5t-340 123.5t-133 316.5v948h328z" />
    <glyph glyph-name="Yacute" unicode="&#xdd;" 
d="M481 1448l420 221l-125 219l-409 -219zM33 1372h356l184 -430l185 430h356l-377 -772v-600h-327v600z" />
    <glyph glyph-name="Thorn" unicode="&#xde;" 
d="M604 1137q205 0 335 -120t130 -308q0 -186 -130 -305t-335 -119h-176v-285h-328v1372h328v-235h176zM584 573q61 0 99 38.5t38 97.5q0 60 -38 98.5t-99 38.5h-156v-273h156z" />
    <glyph glyph-name="germandbls" unicode="&#xdf;" 
d="M510 291h88q57 0 94 37.5t37 97.5q0 57 -37 94t-94 37h-88v270h29q57 0 94 36t37 93q0 55 -37 91t-94 36h-107v-1083h-328v1372h455q202 0 330.5 -111.5t128.5 -285.5q0 -68 -43 -139.5t-109 -112.5q93 -43 152 -131t59 -184q0 -180 -128.5 -294t-330.5 -114h-108v291z
" />
    <glyph glyph-name="agrave" unicode="&#xe0;" 
d="M766 1331l-115 -221l-420 221l125 219zM784 1024h271v-1024h-269v63q-54 -37 -123 -58t-135 -21q-205 0 -336 148t-131 380t131 380t336 148q137 0 256 -71v55zM569 295q77 0 126.5 61t49.5 156t-49.5 156t-126.5 61t-126.5 -61t-49.5 -156t49.5 -156t126.5 -61z" />
    <glyph glyph-name="aacute" unicode="&#xe1;" 
d="M887 1331l-420 -221l-115 221l410 219zM784 1024h271v-1024h-269v63q-54 -37 -123 -58t-135 -21q-205 0 -336 148t-131 380t131 380t336 148q137 0 256 -71v55zM569 295q77 0 126.5 61t49.5 156t-49.5 156t-126.5 61t-126.5 -61t-49.5 -156t49.5 -156t126.5 -61z" />
    <glyph glyph-name="acircumflex" unicode="&#xe2;" 
d="M553 1219l-76 -86h-291l260 307h222l260 -307h-310zM784 1024h271v-1024h-269v63q-54 -37 -123 -58t-135 -21q-205 0 -336 148t-131 380t131 380t336 148q137 0 256 -71v55zM569 295q77 0 126.5 61t49.5 156t-49.5 156t-126.5 61t-126.5 -61t-49.5 -156t49.5 -156
t126.5 -61z" />
    <glyph glyph-name="atilde" unicode="&#xe3;" 
d="M463 1202q-35 0 -68 -20.5t-49 -48.5l-188 131q49 80 119.5 123t148.5 43q52 0 111.5 -26t93.5 -26q72 0 121 76l206 -125q-71 -106 -141 -143t-145 -37q-52 0 -91.5 13.5t-67 26.5t-50.5 13zM784 1024h271v-1024h-269v63q-54 -37 -123 -58t-135 -21q-205 0 -336 148
t-131 380t131 380t336 148q137 0 256 -71v55zM569 295q77 0 126.5 61t49.5 156t-49.5 156t-126.5 61t-126.5 -61t-49.5 -156t49.5 -156t126.5 -61z" />
    <glyph glyph-name="adieresis" unicode="&#xe4;" 
d="M393 1133q-58 0 -98.5 41t-40.5 100q0 58 40.5 99.5t98.5 41.5t98.5 -41.5t40.5 -99.5q0 -59 -40.5 -100t-98.5 -41zM721 1133q-57 0 -97 41t-40 100q0 57 40 99t97 42q59 0 100 -41.5t41 -99.5q0 -59 -40.5 -100t-100.5 -41zM784 1024h271v-1024h-269v63
q-54 -37 -123 -58t-135 -21q-205 0 -336 148t-131 380t131 380t336 148q137 0 256 -71v55zM569 295q77 0 126.5 61t49.5 156t-49.5 156t-126.5 61t-126.5 -61t-49.5 -156t49.5 -156t126.5 -61z" />
    <glyph glyph-name="aring" unicode="&#xe5;" 
d="M559 1133q-95 0 -163 68t-68 163q0 98 67.5 165.5t163.5 67.5q97 0 164.5 -67.5t67.5 -165.5q0 -96 -67.5 -163.5t-164.5 -67.5zM559 1434q-28 0 -47.5 -20.5t-19.5 -49.5q0 -26 20 -46t47 -20q29 0 49.5 19.5t20.5 46.5q0 29 -20.5 49.5t-49.5 20.5zM784 1024h271v-1024
h-269v63q-54 -37 -123 -58t-135 -21q-205 0 -336 148t-131 380t131 380t336 148q137 0 256 -71v55zM569 295q77 0 126.5 61t49.5 156t-49.5 156t-126.5 61t-126.5 -61t-49.5 -156t49.5 -156t126.5 -61z" />
    <glyph glyph-name="ae" unicode="&#xe6;" 
d="M838 270q27 0 62 20.5t67 59.5l163 -203q-82 -80 -148.5 -121.5t-135.5 -41.5q-85 0 -146 69v-53h-229v55q-64 -71 -156 -71q-129 0 -217 149.5t-88 378.5q0 230 88 379t217 149q85 0 154 -63v47h231v-33q46 49 117 49q63 0 118.5 -36.5t101 -109.5t72 -197t26.5 -285
h-377q21 -142 80 -142zM799 784q-39 0 -47 -131h88q2 56 -9 93.5t-32 37.5zM377 287q33 0 55.5 63.5t22.5 163.5t-22.5 163.5t-55.5 63.5q-35 0 -60.5 -65.5t-25.5 -161.5t25.5 -161.5t60.5 -65.5z" />
    <glyph glyph-name="ccedilla" unicode="&#xe7;" 
d="M1049 174q-51 -67 -139.5 -116t-188.5 -66v-31q68 -27 110.5 -89.5t42.5 -139.5q0 -101 -71.5 -173.5t-171.5 -72.5q-95 0 -169.5 65.5t-74.5 169.5h180q0 -18 19 -35.5t43 -17.5q25 0 43 20t18 46t-17.5 43.5t-43.5 17.5h-92v197q-184 32 -296 174t-112 346
q0 232 141.5 380t364.5 148q108 0 213.5 -41.5t163.5 -107.5l-226 -240q-24 34 -64.5 56t-82.5 22q-78 0 -128 -61t-50 -156t50 -156t128 -61q51 0 98 30.5t74 77.5z" />
    <glyph glyph-name="egrave" unicode="&#xe8;" 
d="M784 1331l-114 -221l-420 221l125 219zM604 289q58 0 127 24.5t121 61.5l192 -232q-87 -69 -211.5 -114t-234.5 -45q-232 0 -380 148t-148 380t142.5 380t365.5 148q108 0 197 -36t158.5 -109.5t107.5 -197.5t38 -289h-657q25 -56 72.5 -87.5t109.5 -31.5zM578 778
q-49 0 -88.5 -32.5t-61.5 -88.5h295q-10 54 -51 87.5t-94 33.5z" />
    <glyph glyph-name="eacute" unicode="&#xe9;" 
d="M905 1331l-420 -221l-114 221l409 219zM604 289q58 0 127 24.5t121 61.5l192 -232q-87 -69 -211.5 -114t-234.5 -45q-232 0 -380 148t-148 380t142.5 380t365.5 148q108 0 197 -36t158.5 -109.5t107.5 -197.5t38 -289h-657q25 -56 72.5 -87.5t109.5 -31.5zM578 778
q-49 0 -88.5 -32.5t-61.5 -88.5h295q-10 54 -51 87.5t-94 33.5z" />
    <glyph glyph-name="ecircumflex" unicode="&#xea;" 
d="M571 1219l-75 -86h-291l260 307h221l260 -307h-309zM604 289q58 0 127 24.5t121 61.5l192 -232q-87 -69 -211.5 -114t-234.5 -45q-232 0 -380 148t-148 380t142.5 380t365.5 148q108 0 197 -36t158.5 -109.5t107.5 -197.5t38 -289h-657q25 -56 72.5 -87.5t109.5 -31.5z
M578 778q-49 0 -88.5 -32.5t-61.5 -88.5h295q-10 54 -51 87.5t-94 33.5z" />
    <glyph glyph-name="edieresis" unicode="&#xeb;" 
d="M412 1133q-58 0 -99 41t-41 100q0 57 41 99t99 42t98.5 -41.5t40.5 -99.5q0 -59 -40.5 -100t-98.5 -41zM739 1133q-57 0 -97 41t-40 100q0 57 40 99t97 42q59 0 100.5 -41.5t41.5 -99.5q0 -59 -41 -100t-101 -41zM604 289q58 0 127 24.5t121 61.5l192 -232
q-87 -69 -211.5 -114t-234.5 -45q-232 0 -380 148t-148 380t142.5 380t365.5 148q108 0 197 -36t158.5 -109.5t107.5 -197.5t38 -289h-657q25 -56 72.5 -87.5t109.5 -31.5zM578 778q-49 0 -88.5 -32.5t-61.5 -88.5h295q-10 54 -51 87.5t-94 33.5z" />
    <glyph glyph-name="igrave" unicode="&#xec;" 
d="M707 1110l114 221l-409 219l-125 -219zM178 0v291h275v442h-254v291h577v-733h213v-291h-811z" />
    <glyph glyph-name="iacute" unicode="&#xed;" 
d="M522 1110l420 221l-125 219l-409 -219zM178 0v291h275v442h-254v291h577v-733h213v-291h-811z" />
    <glyph glyph-name="icircumflex" unicode="&#xee;" 
d="M983 1133l-260 307h-221l-260 -307h290l76 86l66 -86h309zM178 0v291h275v442h-254v291h577v-733h213v-291h-811z" />
    <glyph glyph-name="idieresis" unicode="&#xef;" 
d="M588 1274q0 58 -40.5 99.5t-98.5 41.5t-99 -42t-41 -99q0 -59 41 -100t99 -41t98.5 41t40.5 100zM918 1274q0 58 -41.5 99.5t-100.5 41.5q-57 0 -97 -42t-40 -99q0 -59 40 -100t97 -41q60 0 101 41t41 100zM178 0v291h275v442h-254v291h577v-733h213v-291h-811z" />
    <glyph glyph-name="eth" unicode="&#xf0;" 
d="M963 866q118 -182 118 -354q0 -232 -142.5 -380t-365.5 -148t-365 148t-142 380q0 208 117.5 342.5t310.5 161.5l-37 51l-39 -25l-111 166l39 25l-31 45l269 172l28 -43l41 27l111 -166l-43 -29zM573 295q78 0 127.5 61t49.5 156t-49.5 156t-127.5 61t-127 -61t-49 -156
t49 -156t127 -61z" />
    <glyph glyph-name="ntilde" unicode="&#xf1;" 
d="M477 1202q-35 0 -68 -20.5t-49 -48.5l-188 131q49 80 119.5 123t148.5 43q52 0 111.5 -26t93.5 -26q72 0 121 76l207 -125q-71 -106 -141.5 -143t-145.5 -37q-52 0 -91.5 13.5t-67 26.5t-50.5 13zM618 1040q183 0 299.5 -119.5t116.5 -308.5v-612h-321v592q0 61 -39.5 99
t-100.5 38t-100 -38t-39 -99v-592h-321v1024h254v-61q121 77 251 77z" />
    <glyph glyph-name="ograve" unicode="&#xf2;" 
d="M666 1110l114 221l-409 219l-125 -219zM573 1040q223 0 365.5 -148t142.5 -380t-142.5 -380t-365.5 -148t-365 148t-142 380t142 380t365 148zM573 729q-78 0 -127 -61t-49 -156t49 -156t127 -61t127.5 61t49.5 156t-49.5 156t-127.5 61z" />
    <glyph glyph-name="oacute" unicode="&#xf3;" 
d="M481 1110l420 221l-125 219l-409 -219zM573 1040q223 0 365.5 -148t142.5 -380t-142.5 -380t-365.5 -148t-365 148t-142 380t142 380t365 148zM573 729q-78 0 -127 -61t-49 -156t49 -156t127 -61t127.5 61t49.5 156t-49.5 156t-127.5 61z" />
    <glyph glyph-name="ocircumflex" unicode="&#xf4;" 
d="M942 1133l-260 307h-221l-260 -307h291l75 86l66 -86h309zM573 1040q223 0 365.5 -148t142.5 -380t-142.5 -380t-365.5 -148t-365 148t-142 380t142 380t365 148zM573 729q-78 0 -127 -61t-49 -156t49 -156t127 -61t127.5 61t49.5 156t-49.5 156t-127.5 61z" />
    <glyph glyph-name="otilde" unicode="&#xf5;" 
d="M360 1133q16 28 49 48.5t68 20.5q23 0 50.5 -13t67 -26.5t91.5 -13.5q75 0 145.5 37t141.5 143l-207 125q-49 -76 -121 -76q-34 0 -93.5 26t-111.5 26q-78 0 -148.5 -43t-119.5 -123zM573 1040q223 0 365.5 -148t142.5 -380t-142.5 -380t-365.5 -148t-365 148t-142 380
t142 380t365 148zM573 729q-78 0 -127 -61t-49 -156t49 -156t127 -61t127.5 61t49.5 156t-49.5 156t-127.5 61z" />
    <glyph glyph-name="odieresis" unicode="&#xf6;" 
d="M547 1274q0 58 -40.5 99.5t-98.5 41.5t-99 -42t-41 -99q0 -59 41 -100t99 -41t98.5 41t40.5 100zM877 1274q0 58 -41.5 99.5t-100.5 41.5q-57 0 -97 -42t-40 -99q0 -59 40 -100t97 -41q60 0 101 41t41 100zM573 1040q223 0 365.5 -148t142.5 -380t-142.5 -380
t-365.5 -148t-365 148t-142 380t142 380t365 148zM573 729q-78 0 -127 -61t-49 -156t49 -156t127 -61t127.5 61t49.5 156t-49.5 156t-127.5 61z" />
    <glyph glyph-name="divide" unicode="&#xf7;" 
d="M743 971q0 69 -50 119.5t-120 50.5q-69 0 -118 -50.5t-49 -119.5q0 -70 48.5 -117t118.5 -47q71 0 120.5 47t49.5 117zM1083 459v280h-1020v-280h1020zM743 221q0 73 -49.5 121.5t-120.5 48.5q-70 0 -118.5 -48.5t-48.5 -121.5q0 -69 49 -117.5t118 -48.5
q71 0 120.5 48.5t49.5 117.5z" />
    <glyph glyph-name="oslash" unicode="&#xf8;" 
d="M942 889q139 -145 139 -377t-142.5 -380t-365.5 -148q-124 0 -229 51l-25 -35l-155 94l35 49q-133 146 -133 369q0 232 142 380t365 148q122 0 222 -47l20 31l154 -96zM397 512q0 -38 9 -72l200 285q-20 4 -33 4q-78 0 -127 -61t-49 -156zM573 295q78 0 127.5 61
t49.5 156q0 42 -13 86l-207 -297q18 -6 43 -6z" />
    <glyph glyph-name="ugrave" unicode="&#xf9;" 
d="M662 1110l114 221l-409 219l-125 -219zM117 1024h321v-596q0 -58 38 -95.5t97 -37.5t97.5 37.5t38.5 95.5v596h321v-616q0 -186 -128 -305t-329 -119t-328.5 119t-127.5 305v616z" />
    <glyph glyph-name="uacute" unicode="&#xfa;" 
d="M477 1110l420 221l-125 219l-410 -219zM117 1024h321v-596q0 -58 38 -95.5t97 -37.5t97.5 37.5t38.5 95.5v596h321v-616q0 -186 -128 -305t-329 -119t-328.5 119t-127.5 305v616z" />
    <glyph glyph-name="ucircumflex" unicode="&#xfb;" 
d="M938 1133l-260 307h-221l-260 -307h290l76 86l66 -86h309zM117 1024h321v-596q0 -58 38 -95.5t97 -37.5t97.5 37.5t38.5 95.5v596h321v-616q0 -186 -128 -305t-329 -119t-328.5 119t-127.5 305v616z" />
    <glyph glyph-name="udieresis" unicode="&#xfc;" 
d="M543 1274q0 57 -41 99t-99 42t-98.5 -41.5t-40.5 -99.5q0 -59 40.5 -100t98.5 -41t99 41t41 100zM872 1274q0 58 -41 99.5t-100 41.5q-57 0 -97 -42t-40 -99q0 -59 40 -100t97 -41q60 0 100.5 41t40.5 100zM117 1024h321v-596q0 -58 38 -95.5t97 -37.5t97.5 37.5
t38.5 95.5v596h321v-616q0 -186 -128 -305t-329 -119t-328.5 119t-127.5 305v616z" />
    <glyph glyph-name="yacute" unicode="&#xfd;" 
d="M481 1110l420 221l-125 219l-409 -219zM35 1024h336l202 -543l201 543h344l-416 -993q-85 -205 -224 -318t-318 -139l-101 291q115 11 207 85t131 195z" />
    <glyph glyph-name="thorn" unicode="&#xfe;" 
d="M618 1040q204 0 335.5 -148.5t131.5 -379.5t-131.5 -379.5t-335.5 -148.5q-116 0 -202 57v-451h-324v1844h324v-443q100 49 202 49zM578 295q77 0 126.5 61t49.5 156t-49.5 156t-126.5 61t-127 -61t-50 -156t50 -156t127 -61z" />
    <glyph glyph-name="ydieresis" unicode="&#xff;" 
d="M547 1274q0 58 -40.5 99.5t-98.5 41.5t-99 -42t-41 -99q0 -59 41 -100t99 -41t98.5 41t40.5 100zM877 1274q0 58 -41.5 99.5t-100.5 41.5q-57 0 -97 -42t-40 -99q0 -59 40 -100t97 -41q60 0 101 41t41 100zM35 1024h336l202 -543l201 543h344l-416 -993
q-85 -205 -224 -318t-318 -139l-101 291q115 11 207 85t131 195z" />
    <glyph glyph-name="Amacron" unicode="&#x100;" 
d="M850 1716v-246h-545v246h545zM793 0l-66 283h-307l-66 -283h-348l377 1372h381l375 -1372h-346zM664 563l-91 404l-90 -404h181z" />
    <glyph glyph-name="amacron" unicode="&#x101;" 
d="M836 1378v-245h-545v245h545zM784 1024h271v-1024h-269v63q-54 -37 -123 -58t-135 -21q-205 0 -336 148t-131 380t131 380t336 148q137 0 256 -71v55zM569 295q77 0 126.5 61t49.5 156t-49.5 156t-126.5 61t-126.5 -61t-49.5 -156t49.5 -156t126.5 -61z" />
    <glyph glyph-name="Abreve" unicode="&#x102;" 
d="M569 1468q-107 0 -186.5 68t-79.5 170v104h182v-79q0 -32 25 -55t59 -23t60 23t26 55v79l183 2v-106q0 -102 -81 -170t-188 -68zM793 0l-66 283h-307l-66 -283h-348l377 1372h381l375 -1372h-346zM664 563l-91 404l-90 -404h181z" />
    <glyph glyph-name="abreve" unicode="&#x103;" 
d="M555 1130q-107 0 -186.5 68t-79.5 170v105h182v-80q0 -32 25 -55t59 -23t60 23t26 55v80l182 2v-107q0 -102 -80.5 -170t-187.5 -68zM784 1024h271v-1024h-269v63q-54 -37 -123 -58t-135 -21q-205 0 -336 148t-131 380t131 380t336 148q137 0 256 -71v55zM569 295
q77 0 126.5 61t49.5 156t-49.5 156t-126.5 61t-126.5 -61t-49.5 -156t49.5 -156t126.5 -61z" />
    <glyph glyph-name="Aogonek" unicode="&#x104;" 
d="M848 -297q46 0 98 25l53 -115q-86 -39 -174 -39q-98 0 -161.5 57t-63.5 146q0 61 54.5 127t136.5 102l-64 277h-307l-66 -283h-348l377 1372h381l375 -1372h-193q-83 -39 -136.5 -99.5t-53.5 -111.5q0 -38 26 -62t66 -24zM664 563l-91 404l-90 -404h181z" />
    <glyph glyph-name="aogonek" unicode="&#x105;" 
d="M938 0q-83 -39 -136.5 -99.5t-53.5 -111.5q0 -38 26 -62t66 -24q46 0 98 25l53 -115q-86 -39 -174 -39q-98 0 -161.5 57t-63.5 146q0 62 55 128.5t139 102.5v55q-54 -37 -123 -58t-135 -21q-205 0 -336 148t-131 380t131 380t336 148q137 0 256 -71v55h271v-1024h-117z
M569 295q77 0 126.5 61t49.5 156t-49.5 156t-126.5 61t-126.5 -61t-49.5 -156t49.5 -156t126.5 -61z" />
    <glyph glyph-name="Cacute" unicode="&#x106;" 
d="M485 1448l420 221l-125 219l-409 -219zM575 -16q-234 0 -382 138.5t-148 358.5v410q0 220 148.5 359t381.5 139q210 0 352 -110.5t167 -289.5l-326 -80q-10 76 -63 122t-130 46q-89 0 -145.5 -57.5t-56.5 -149.5v-368q0 -92 56.5 -149.5t145.5 -57.5q84 0 140 51t63 137
l326 -59q-12 -195 -159.5 -317.5t-369.5 -122.5z" />
    <glyph glyph-name="cacute" unicode="&#x107;" 
d="M541 1110l420 221l-125 219l-410 -219zM633 -16q-221 0 -362.5 148t-141.5 380t141.5 380t364.5 148q108 0 213.5 -41.5t163.5 -107.5l-226 -240q-24 34 -64.5 56t-82.5 22q-78 0 -128 -61t-50 -156t50 -156t128 -61q51 0 98 30.5t74 77.5l238 -229
q-62 -83 -178.5 -136.5t-237.5 -53.5z" />
    <glyph glyph-name="Cdotaccent" unicode="&#x10a;" 
d="M578 1464q-83 0 -136 52t-53 135t52.5 134.5t136.5 51.5q83 0 135.5 -51.5t52.5 -134.5t-52.5 -135t-135.5 -52zM575 -16q-234 0 -382 138.5t-148 358.5v410q0 220 148.5 359t381.5 139q210 0 352 -110.5t167 -289.5l-326 -80q-10 76 -63 122t-130 46q-89 0 -145.5 -57.5
t-56.5 -149.5v-368q0 -92 56.5 -149.5t145.5 -57.5q84 0 140 51t63 137l326 -59q-12 -195 -159.5 -317.5t-369.5 -122.5z" />
    <glyph glyph-name="cdotaccent" unicode="&#x10b;" 
d="M633 1126q-83 0 -136 52t-53 135t52.5 134.5t136.5 51.5q83 0 135.5 -51.5t52.5 -134.5t-52.5 -135t-135.5 -52zM633 -16q-221 0 -362.5 148t-141.5 380t141.5 380t364.5 148q108 0 213.5 -41.5t163.5 -107.5l-226 -240q-24 34 -64.5 56t-82.5 22q-78 0 -128 -61
t-50 -156t50 -156t128 -61q51 0 98 30.5t74 77.5l238 -229q-62 -83 -178.5 -136.5t-237.5 -53.5z" />
    <glyph glyph-name="Ccaron" unicode="&#x10c;" 
d="M948 1778h-309l-66 -86l-75 86h-291l260 -308h221zM575 -16q-234 0 -382 138.5t-148 358.5v410q0 220 148.5 359t381.5 139q210 0 352 -110.5t167 -289.5l-326 -80q-10 76 -63 122t-130 46q-89 0 -145.5 -57.5t-56.5 -149.5v-368q0 -92 56.5 -149.5t145.5 -57.5
q84 0 140 51t63 137l326 -59q-12 -195 -159.5 -317.5t-369.5 -122.5z" />
    <glyph glyph-name="ccaron" unicode="&#x10d;" 
d="M1004 1440h-310l-65 -86l-76 86h-291l260 -307h221zM633 -16q-221 0 -362.5 148t-141.5 380t141.5 380t364.5 148q108 0 213.5 -41.5t163.5 -107.5l-226 -240q-24 34 -64.5 56t-82.5 22q-78 0 -128 -61t-50 -156t50 -156t128 -61q51 0 98 30.5t74 77.5l238 -229
q-62 -83 -178.5 -136.5t-237.5 -53.5z" />
    <glyph glyph-name="Dcaron" unicode="&#x10e;" 
d="M866 1778h-309l-65 -86l-76 86h-291l260 -308h221zM104 0v1372h431q258 0 421.5 -154t163.5 -397v-268q0 -244 -163.5 -398.5t-421.5 -154.5h-431zM432 291h80q125 0 203 78t78 204v228q0 125 -78.5 203.5t-202.5 78.5h-80v-792z" />
    <glyph glyph-name="dcaron" unicode="&#x10f;" 
d="M1223 1436h278l-158 -428h-237zM731 983v451h324v-1434h-269v63q-54 -37 -123 -58t-135 -21q-204 0 -335.5 148.5t-131.5 379.5t131.5 379.5t335.5 148.5q117 0 203 -57zM569 295q77 0 126.5 61t49.5 156t-49.5 156t-126.5 61t-126.5 -61t-49.5 -156t49.5 -156t126.5 -61
z" />
    <glyph glyph-name="Dcroat" unicode="&#x110;" 
d="M535 1372q258 0 421.5 -154t163.5 -397v-268q0 -244 -163.5 -398.5t-421.5 -154.5h-431v532h-65v289h65v551h431zM793 573v228q0 125 -78.5 203.5t-202.5 78.5h-80v-262h158v-289h-158v-241h80q125 0 203 78t78 204z" />
    <glyph glyph-name="dcroat" unicode="&#x111;" 
d="M1114 1352v-248h-59v-1104h-269v63q-54 -37 -123 -58t-135 -21q-204 0 -335.5 148.5t-131.5 379.5t131.5 379.5t335.5 148.5q117 0 203 -57v121h-244v248h244v82h324v-82h59zM569 295q77 0 126.5 61t49.5 156t-49.5 156t-126.5 61t-126.5 -61t-49.5 -156t49.5 -156
t126.5 -61z" />
    <glyph glyph-name="Emacron" unicode="&#x112;" 
d="M862 1470v246h-545v-246h545zM154 0v1372h882v-289h-555v-252h424v-280h-424v-260h563v-291h-890z" />
    <glyph glyph-name="emacron" unicode="&#x113;" 
d="M854 1378v-245h-545v245h545zM604 289q58 0 127 24.5t121 61.5l192 -232q-87 -69 -211.5 -114t-234.5 -45q-232 0 -380 148t-148 380t142.5 380t365.5 148q108 0 197 -36t158.5 -109.5t107.5 -197.5t38 -289h-657q25 -56 72.5 -87.5t109.5 -31.5zM578 778
q-49 0 -88.5 -32.5t-61.5 -88.5h295q-10 54 -51 87.5t-94 33.5z" />
    <glyph glyph-name="Edotaccent" unicode="&#x116;" 
d="M586 1464q-83 0 -136 52t-53 135t52.5 134.5t136.5 51.5q83 0 135.5 -51.5t52.5 -134.5t-52.5 -135t-135.5 -52zM154 0v1372h882v-289h-555v-252h424v-280h-424v-260h563v-291h-890z" />
    <glyph glyph-name="edotaccent" unicode="&#x117;" 
d="M578 1126q-83 0 -136 52t-53 135t52.5 134.5t136.5 51.5q83 0 135.5 -51.5t52.5 -134.5t-52.5 -135t-135.5 -52zM604 289q58 0 127 24.5t121 61.5l192 -232q-87 -69 -211.5 -114t-234.5 -45q-232 0 -380 148t-148 380t142.5 380t365.5 148q108 0 197 -36t158.5 -109.5
t107.5 -197.5t38 -289h-657q25 -56 72.5 -87.5t109.5 -31.5zM578 778q-49 0 -88.5 -32.5t-61.5 -88.5h295q-10 54 -51 87.5t-94 33.5z" />
    <glyph glyph-name="Eogonek" unicode="&#x118;" 
d="M866 0q-83 -39 -136.5 -99.5t-53.5 -111.5q0 -38 26 -62t66 -24q46 0 98 25l54 -115q-86 -39 -175 -39q-98 0 -161.5 57t-63.5 146q0 59 50.5 123t127.5 100h-544v1372h882v-289h-555v-252h424v-280h-424v-260h563v-291h-178z" />
    <glyph glyph-name="eogonek" unicode="&#x119;" 
d="M649 -14q-72 -40 -118 -95.5t-46 -101.5q0 -38 26.5 -62t66.5 -24q46 0 98 25l53 -115q-86 -39 -174 -39q-98 0 -161.5 57t-63.5 146q0 56 45.5 116.5t118.5 98.5q-191 34 -307.5 175.5t-116.5 344.5q0 232 142.5 380t365.5 148q108 0 197 -36t158.5 -109.5t107.5 -197.5
t38 -289h-657q25 -56 72.5 -87.5t109.5 -31.5q58 0 127 24.5t121 61.5l192 -232q-76 -61 -184 -103.5t-211 -53.5zM578 778q-49 0 -88.5 -32.5t-61.5 -88.5h295q-10 54 -51 87.5t-94 33.5z" />
    <glyph glyph-name="Ecaron" unicode="&#x11a;" 
d="M956 1778h-309l-65 -86l-76 86h-291l260 -308h221zM154 0v1372h882v-289h-555v-252h424v-280h-424v-260h563v-291h-890z" />
    <glyph glyph-name="ecaron" unicode="&#x11b;" 
d="M688 1133h-221l-260 307h291l75 -86l66 86h309zM604 289q58 0 127 24.5t121 61.5l192 -232q-87 -69 -211.5 -114t-234.5 -45q-232 0 -380 148t-148 380t142.5 380t365.5 148q108 0 197 -36t158.5 -109.5t107.5 -197.5t38 -289h-657q25 -56 72.5 -87.5t109.5 -31.5z
M578 778q-49 0 -88.5 -32.5t-61.5 -88.5h295q-10 54 -51 87.5t-94 33.5z" />
    <glyph glyph-name="Gbreve" unicode="&#x11e;" 
d="M563 1485q-107 0 -186.5 67.5t-79.5 169.5v105h182v-80q0 -32 25 -55t59 -23t60 23t26 55v80l182 2v-107q0 -102 -80.5 -169.5t-187.5 -67.5zM543 827h555v-827h-281v111q-61 -59 -137.5 -93t-153.5 -34q-215 0 -352 138.5t-137 358.5v410q0 219 148 358.5t380 139.5
q201 0 348 -113t172 -287l-325 -80q-10 74 -64.5 121t-128.5 47q-89 0 -145.5 -57.5t-56.5 -149.5v-368q0 -92 56.5 -149.5t145.5 -57.5q90 0 146.5 57.5t56.5 149.5v35h-227v290z" />
    <glyph glyph-name="gbreve" unicode="&#x11f;" 
d="M547 1141q-107 0 -186.5 67.5t-79.5 169.5v105h182v-80q0 -32 25 -55t59 -23t60 23t26 55v80l182 2v-107q0 -102 -80.5 -169.5t-187.5 -67.5zM786 1028h269v-1030q0 -186 -128 -305t-329 -119q-74 0 -168 32t-164 81l125 262q39 -28 91 -46t96 -18q68 0 110.5 36.5
t42.5 96.5v27q-86 -57 -203 -57q-204 0 -335.5 148.5t-131.5 379.5t131.5 379.5t335.5 148.5q66 0 135 -21t123 -58v63zM569 299q77 0 126.5 61t49.5 156t-49.5 156t-126.5 61t-126.5 -61t-49.5 -156t49.5 -156t126.5 -61z" />
    <glyph glyph-name="Gdotaccent" unicode="&#x120;" 
d="M567 1481q-83 0 -135.5 51.5t-52.5 134.5t52.5 134.5t135.5 51.5q84 0 136.5 -51.5t52.5 -134.5t-52.5 -134.5t-136.5 -51.5zM543 827h555v-827h-281v111q-61 -59 -137.5 -93t-153.5 -34q-215 0 -352 138.5t-137 358.5v410q0 219 148 358.5t380 139.5q201 0 348 -113
t172 -287l-325 -80q-10 74 -64.5 121t-128.5 47q-89 0 -145.5 -57.5t-56.5 -149.5v-368q0 -92 56.5 -149.5t145.5 -57.5q90 0 146.5 57.5t56.5 149.5v35h-227v290z" />
    <glyph glyph-name="gdotaccent" unicode="&#x121;" 
d="M551 1137q-84 0 -136.5 51.5t-52.5 134.5t52.5 134.5t136.5 51.5q83 0 135.5 -51.5t52.5 -134.5t-52.5 -134.5t-135.5 -51.5zM786 1028h269v-1030q0 -186 -128 -305t-329 -119q-74 0 -168 32t-164 81l125 262q39 -28 91 -46t96 -18q68 0 110.5 36.5t42.5 96.5v27
q-86 -57 -203 -57q-204 0 -335.5 148.5t-131.5 379.5t131.5 379.5t335.5 148.5q66 0 135 -21t123 -58v63zM569 299q77 0 126.5 61t49.5 156t-49.5 156t-126.5 61t-126.5 -61t-49.5 -156t49.5 -156t126.5 -61z" />
    <glyph glyph-name="Gcommaaccent" unicode="&#x122;" 
d="M543 827h555v-827h-281v111q-61 -59 -137.5 -93t-153.5 -34q-215 0 -352 138.5t-137 358.5v410q0 219 148 358.5t380 139.5q201 0 348 -113t172 -287l-325 -80q-10 74 -64.5 121t-128.5 47q-89 0 -145.5 -57.5t-56.5 -149.5v-368q0 -92 56.5 -149.5t145.5 -57.5
q90 0 146.5 57.5t56.5 149.5v35h-227v290zM322 -535l116 429h279l-158 -429h-237z" />
    <glyph glyph-name="gcommaaccent" unicode="&#x123;" 
d="M811 1565l-117 -428h-278l157 428h238zM786 1028h269v-1030q0 -186 -128 -305t-329 -119q-74 0 -168 32t-164 81l125 262q39 -28 91 -46t96 -18q68 0 110.5 36.5t42.5 96.5v27q-86 -57 -203 -57q-204 0 -335.5 148.5t-131.5 379.5t131.5 379.5t335.5 148.5q66 0 135 -21
t123 -58v63zM569 299q77 0 126.5 61t49.5 156t-49.5 156t-126.5 61t-126.5 -61t-49.5 -156t49.5 -156t126.5 -61z" />
    <glyph glyph-name="Hbar" unicode="&#x126;" 
d="M1071 1235v-248h-45v-987h-328v541h-249v-541h-328v987h-45v248h45v137h328v-137h249v137h328v-137h45zM698 831v156h-249v-156h249z" />
    <glyph glyph-name="hbar" unicode="&#x127;" 
d="M618 1040q183 0 299.5 -121t116.5 -311v-608h-321v588q0 62 -39.5 101.5t-100.5 39.5t-100 -39.5t-39 -101.5v-588h-321v1104h-66v248h66v82h321v-82h240v-248h-240v-107q94 43 184 43z" />
    <glyph glyph-name="Imacron" unicode="&#x12a;" 
d="M850 1470v246h-545v-246h545zM131 0v291h279v792h-258v289h843v-289h-258v-792h279v-291h-885z" />
    <glyph glyph-name="imacron" unicode="&#x12b;" 
d="M891 1133v245h-545v-245h545zM178 0v291h275v442h-254v291h577v-733h213v-291h-811z" />
    <glyph glyph-name="Iogonek" unicode="&#x12e;" 
d="M627 0q-83 -40 -137 -100t-54 -111q0 -38 26 -62t66 -24q47 0 99 25l53 -115q-86 -39 -174 -39q-98 0 -161.5 57t-63.5 146q0 59 50.5 123t127.5 100h-328v291h279v792h-258v289h843v-289h-258v-792h279v-291h-389z" />
    <glyph glyph-name="iogonek" unicode="&#x12f;" 
d="M614 1126q-83 0 -135.5 52t-52.5 135t52.5 134.5t135.5 51.5q84 0 136.5 -51.5t52.5 -134.5t-53 -135t-136 -52zM670 0q-83 -40 -137 -100t-54 -111q0 -38 26 -62t66 -24q47 0 99 25l53 -115q-86 -39 -174 -39q-98 0 -161.5 57t-63.5 146q0 59 50.5 123t127.5 100h-324
v291h275v442h-254v291h577v-733h213v-291h-319z" />
    <glyph glyph-name="Idotaccent" unicode="&#x130;" 
d="M573 1464q-83 0 -135.5 52t-52.5 135t52.5 134.5t135.5 51.5q84 0 136.5 -51.5t52.5 -134.5t-53 -135t-136 -52zM131 0v291h279v792h-258v289h843v-289h-258v-792h279v-291h-885z" />
    <glyph glyph-name="dotlessi" unicode="&#x131;" 
d="M178 0v291h275v442h-254v291h577v-733h213v-291h-811z" />
    <glyph glyph-name="Kcommaaccent" unicode="&#x136;" 
d="M1104 1372l-418 -590l412 -782h-353l-249 516l-64 -90v-426h-328v1372h328v-465l320 465h352zM346 -535l117 429h278l-157 -429h-238z" />
    <glyph glyph-name="kcommaaccent" unicode="&#x137;" 
d="M455 221v-221h-324v1434h324v-752l258 342h368l-344 -440l365 -584h-391l-181 317zM344 -535l117 429h278l-157 -429h-238z" />
    <glyph glyph-name="Lacute" unicode="&#x139;" 
d="M307 1448l420 221l-125 219l-409 -219zM174 0v1372h328v-1081h540v-291h-868z" />
    <glyph glyph-name="lacute" unicode="&#x13a;" 
d="M401 1509l420 222l-125 219l-409 -219zM100 1143v291h514v-1022q0 -51 35 -86t86 -35h254v-291h-274q-188 0 -306 109t-118 282v752h-191z" />
    <glyph glyph-name="Lcommaaccent" unicode="&#x13b;" 
d="M174 0v1372h328v-1081h540v-291h-868zM633 -535l158 429h-279l-117 -429h238z" />
    <glyph glyph-name="lcommaaccent" unicode="&#x13c;" 
d="M100 1143v291h514v-1022q0 -51 35 -86t86 -35h254v-291h-274q-188 0 -306 109t-118 282v752h-191zM598 -535l158 429h-279l-117 -429h238z" />
    <glyph glyph-name="Lcaron" unicode="&#x13d;" 
d="M770 1778h-309l-66 -86l-76 86h-290l260 -308h221zM174 0v1372h328v-1081h540v-291h-868z" />
    <glyph glyph-name="lcaron" unicode="&#x13e;" 
d="M864 1839h-309l-66 -86l-75 86h-291l260 -307h221zM100 1143v291h514v-1022q0 -51 35 -86t86 -35h254v-291h-274q-188 0 -306 109t-118 282v752h-191z" />
    <glyph glyph-name="Lslash" unicode="&#x141;" 
d="M502 291h540v-291h-868v477l-90 -47v305l90 47v590h328v-416l307 164v-311l-307 -160v-358z" />
    <glyph glyph-name="lslash" unicode="&#x142;" 
d="M735 291h254v-291h-274q-188 0 -306 109t-118 282v135l-115 -59v305l115 62v309h-191v291h514v-428l287 151v-311l-287 -150v-284q0 -51 35 -86t86 -35z" />
    <glyph glyph-name="Nacute" unicode="&#x143;" 
d="M481 1448l420 221l-125 219l-409 -219zM111 0v1372h292l326 -747v747h307v-1372h-293l-325 750v-750h-307z" />
    <glyph glyph-name="nacute" unicode="&#x144;" 
d="M901 1331l-420 -221l-114 221l409 219zM618 1040q183 0 299.5 -119.5t116.5 -308.5v-612h-321v592q0 61 -39.5 99t-100.5 38t-100 -38t-39 -99v-592h-321v1024h254v-61q121 77 251 77z" />
    <glyph glyph-name="Ncommaaccent" unicode="&#x145;" 
d="M111 0v1372h292l326 -747v747h307v-1372h-293l-325 750v-750h-307zM565 -535l158 429h-279l-116 -429h237z" />
    <glyph glyph-name="ncommaaccent" unicode="&#x146;" 
d="M618 1040q183 0 299.5 -119.5t116.5 -308.5v-612h-321v592q0 61 -39.5 99t-100.5 38t-100 -38t-39 -99v-592h-321v1024h254v-61q121 77 251 77zM301 -535l117 429h278l-157 -429h-238z" />
    <glyph glyph-name="Ncaron" unicode="&#x147;" 
d="M944 1778h-309l-66 -86l-75 86h-291l260 -308h221zM111 0v1372h292l326 -747v747h307v-1372h-293l-325 750v-750h-307z" />
    <glyph glyph-name="ncaron" unicode="&#x148;" 
d="M684 1133h-221l-260 307h291l75 -86l66 86h309zM618 1040q183 0 299.5 -119.5t116.5 -308.5v-612h-321v592q0 61 -39.5 99t-100.5 38t-100 -38t-39 -99v-592h-321v1024h254v-61q121 77 251 77z" />
    <glyph glyph-name="Eng" unicode="&#x14a;" 
d="M729 1372h307v-1425q0 -164 -115 -268.5t-296 -104.5h-99v291h78q46 0 74.5 28t28.5 74v117l-289 666v-750h-307v1372h292l326 -747v747z" />
    <glyph glyph-name="eng" unicode="&#x14b;" 
d="M618 1040q183 0 299.5 -119.5t116.5 -308.5v-647q0 -173 -118 -282t-306 -109h-71v291h51q53 0 88 34.5t35 86.5v606q0 61 -39.5 99t-100.5 38t-100 -38t-39 -99v-592h-321v1024h254v-61q121 77 251 77z" />
    <glyph glyph-name="Omacron" unicode="&#x14c;" 
d="M850 1470v246h-545v-246h545zM573 1389q234 0 382.5 -139t148.5 -359v-410q0 -219 -148.5 -358t-382.5 -139t-382 138.5t-148 358.5v410q0 220 148.5 359t381.5 139zM573 1077q-89 0 -145.5 -57.5t-56.5 -149.5v-368q0 -92 56.5 -149.5t145.5 -57.5q90 0 146.5 57.5
t56.5 149.5v368q0 92 -56.5 149.5t-146.5 57.5z" />
    <glyph glyph-name="omacron" unicode="&#x14d;" 
d="M850 1133v245h-545v-245h545zM573 1040q223 0 365.5 -148t142.5 -380t-142.5 -380t-365.5 -148t-365 148t-142 380t142 380t365 148zM573 729q-78 0 -127 -61t-49 -156t49 -156t127 -61t127.5 61t49.5 156t-49.5 156t-127.5 61z" />
    <glyph glyph-name="Ohungarumlaut" unicode="&#x150;" 
d="M408 1423l319 351l-166 149l-309 -348zM770 1423l320 351l-166 149l-310 -348zM573 1389q234 0 382.5 -139t148.5 -359v-410q0 -219 -148.5 -358t-382.5 -139t-382 138.5t-148 358.5v410q0 220 148.5 359t381.5 139zM573 1077q-89 0 -145.5 -57.5t-56.5 -149.5v-368
q0 -92 56.5 -149.5t145.5 -57.5q90 0 146.5 57.5t56.5 149.5v368q0 92 -56.5 149.5t-146.5 57.5z" />
    <glyph glyph-name="ohungarumlaut" unicode="&#x151;" 
d="M408 1085l319 351l-166 149l-309 -348zM770 1085l320 351l-166 149l-310 -348zM573 1040q223 0 365.5 -148t142.5 -380t-142.5 -380t-365.5 -148t-365 148t-142 380t142 380t365 148zM573 729q-78 0 -127 -61t-49 -156t49 -156t127 -61t127.5 61t49.5 156t-49.5 156
t-127.5 61z" />
    <glyph glyph-name="OE" unicode="&#x152;" 
d="M842 291h262v-291h-551q-232 0 -380 139.5t-148 358.5v376q0 219 148 358.5t380 139.5h543v-289h-254v-252h223v-280h-223v-260zM352 518q0 -92 56.5 -149.5t144.5 -57.5v750q-88 0 -144.5 -57.5t-56.5 -149.5v-336z" />
    <glyph glyph-name="oe" unicode="&#x153;" 
d="M838 270q27 0 62 20.5t67 59.5l163 -203q-82 -80 -148.5 -121.5t-135.5 -41.5t-140 41t-112 112q-41 -78 -106.5 -115.5t-139.5 -37.5q-151 0 -244.5 148t-93.5 386q0 231 90.5 376.5t245.5 145.5q75 0 141 -35.5t107 -103.5q38 67 94.5 103t122.5 36t123 -36.5
t102.5 -109.5t72 -196.5t26.5 -285.5h-377q21 -142 80 -142zM799 784q-39 0 -47 -131h88q2 56 -9 93.5t-32 37.5zM377 287q33 0 55.5 63.5t22.5 163.5t-22.5 163.5t-55.5 63.5q-35 0 -60.5 -65.5t-25.5 -161.5t25.5 -161.5t60.5 -65.5z" />
    <glyph glyph-name="Racute" unicode="&#x154;" 
d="M840 1669l-420 -221l-115 221l410 219zM1106 0h-350l-240 498h-74v-498h-327v1372h510q212 0 345.5 -122t133.5 -314q0 -141 -74 -247.5t-203 -156.5zM442 1083v-295h162q66 0 109 41t43 107q0 64 -43 105.5t-109 41.5h-162z" />
    <glyph glyph-name="racute" unicode="&#x155;" 
d="M905 1331l-420 -221l-114 221l409 219zM760 733q-54 0 -88.5 -33.5t-34.5 -87.5v-321h170v-291h-647v291h153v442h-153v291h407v-61q97 61 213 61h279v-291h-299z" />
    <glyph glyph-name="Rcommaaccent" unicode="&#x156;" 
d="M442 498v-498h-327v1372h510q212 0 345.5 -122t133.5 -314q0 -141 -74 -247.5t-203 -156.5l279 -532h-350l-240 498h-74zM442 1083v-295h162q66 0 109 41t43 107q0 64 -43 105.5t-109 41.5h-162zM365 -535l116 429h279l-158 -429h-237z" />
    <glyph glyph-name="rcommaaccent" unicode="&#x157;" 
d="M760 733q-54 0 -88.5 -33.5t-34.5 -87.5v-321h170v-291h-647v291h153v442h-153v291h407v-61q97 61 213 61h279v-291h-299zM217 -535l117 429h278l-157 -429h-238z" />
    <glyph glyph-name="Rcaron" unicode="&#x158;" 
d="M623 1470h-222l-260 308h291l76 -86l65 86h310zM1106 0h-350l-240 498h-74v-498h-327v1372h510q212 0 345.5 -122t133.5 -314q0 -141 -74 -247.5t-203 -156.5zM442 1083v-295h162q66 0 109 41t43 107q0 64 -43 105.5t-109 41.5h-162z" />
    <glyph glyph-name="rcaron" unicode="&#x159;" 
d="M688 1133h-221l-260 307h291l75 -86l66 86h309zM760 733q-54 0 -88.5 -33.5t-34.5 -87.5v-321h170v-291h-647v291h153v442h-153v291h407v-61q97 61 213 61h279v-291h-299z" />
    <glyph glyph-name="Sacute" unicode="&#x15a;" 
d="M461 1448l420 221l-125 219l-410 -219zM51 227l238 222q43 -68 117 -111t147 -43q67 0 109.5 33t42.5 84q0 42 -26.5 73.5t-70 50.5t-99 39t-114 37t-114 46.5t-99 66t-70 96.5t-26.5 137q0 189 132 310t335 121q131 0 264 -57.5t209 -147.5l-190 -230q-61 57 -136 90
t-147 33q-51 0 -85 -27.5t-34 -70.5q0 -31 21 -55t57 -39.5t82.5 -30t98 -30t102.5 -35t97.5 -50.5t82.5 -70.5t57 -100.5t21 -136q0 -197 -140 -322.5t-360 -125.5q-163 0 -304 68t-198 175z" />
    <glyph glyph-name="sacute" unicode="&#x15b;" 
d="M457 1110l420 221l-125 219l-410 -219zM100 158l199 178q52 -50 111 -72t139 -22q67 0 109 23t42 59q0 29 -25 46.5t-65.5 24.5t-92.5 15t-106.5 15.5t-106.5 27.5t-92.5 49.5t-65.5 84t-25 128.5q0 143 126 234t322 91q114 0 228 -40.5t180 -104.5l-184 -197
q-57 44 -108.5 64t-115.5 20q-52 0 -84 -18.5t-32 -48.5q0 -25 25 -40.5t65.5 -22t92.5 -14t106.5 -15.5t106.5 -29.5t92.5 -52t65.5 -86.5t25 -131q0 -149 -135.5 -244.5t-347.5 -95.5q-138 0 -264.5 49t-184.5 125z" />
    <glyph glyph-name="Scedilla" unicode="&#x15e;" 
d="M1053 432q0 -172 -110.5 -292t-291.5 -148v-31q68 -27 111 -89.5t43 -139.5q0 -101 -72 -173.5t-172 -72.5q-95 0 -169.5 65.5t-74.5 169.5h181q0 -18 18.5 -35.5t42.5 -17.5q25 0 43.5 20t18.5 46t-18 43.5t-44 17.5h-92v195q-139 15 -253 79.5t-163 157.5l238 222
q43 -68 117 -111t147 -43q67 0 109.5 33t42.5 84q0 42 -26.5 73.5t-70 50.5t-99 39t-114 37t-114 46.5t-99 66t-70 96.5t-26.5 137q0 189 132 310t335 121q131 0 264 -57.5t209 -147.5l-190 -230q-61 57 -136 90t-147 33q-51 0 -85 -27.5t-34 -70.5q0 -31 21 -55t57 -39.5
t82.5 -30t98 -30t102.5 -35t97.5 -50.5t82.5 -70.5t57 -100.5t21 -136z" />
    <glyph glyph-name="scedilla" unicode="&#x15f;" 
d="M1032 324q0 -133 -108.5 -224.5t-286.5 -111.5v-27q68 -27 111 -89.5t43 -139.5q0 -101 -72 -173.5t-172 -72.5q-95 0 -169.5 65.5t-74.5 169.5h180q0 -18 19 -35.5t43 -17.5q25 0 43 20t18 46t-17.5 43.5t-43.5 17.5h-92v195q-114 15 -210 60.5t-143 107.5l199 178
q52 -50 111 -72t139 -22q67 0 109 23t42 59q0 29 -25 46.5t-65.5 24.5t-92.5 15t-106.5 15.5t-106.5 27.5t-92.5 49.5t-65.5 84t-25 128.5q0 143 126 234t322 91q114 0 228 -40.5t180 -104.5l-184 -197q-57 44 -108.5 64t-115.5 20q-52 0 -84 -18.5t-32 -48.5
q0 -25 25 -40.5t65.5 -22t92.5 -14t106.5 -15.5t106.5 -29.5t92.5 -52t65.5 -86.5t25 -131z" />
    <glyph glyph-name="Scaron" unicode="&#x160;" 
d="M924 1778h-310l-65 -86l-76 86h-291l260 -308h222zM51 227l238 222q43 -68 117 -111t147 -43q67 0 109.5 33t42.5 84q0 42 -26.5 73.5t-70 50.5t-99 39t-114 37t-114 46.5t-99 66t-70 96.5t-26.5 137q0 189 132 310t335 121q131 0 264 -57.5t209 -147.5l-190 -230
q-61 57 -136 90t-147 33q-51 0 -85 -27.5t-34 -70.5q0 -31 21 -55t57 -39.5t82.5 -30t98 -30t102.5 -35t97.5 -50.5t82.5 -70.5t57 -100.5t21 -136q0 -197 -140 -322.5t-360 -125.5q-163 0 -304 68t-198 175z" />
    <glyph glyph-name="scaron" unicode="&#x161;" 
d="M920 1440h-310l-65 -86l-76 86h-291l260 -307h221zM100 158l199 178q52 -50 111 -72t139 -22q67 0 109 23t42 59q0 29 -25 46.5t-65.5 24.5t-92.5 15t-106.5 15.5t-106.5 27.5t-92.5 49.5t-65.5 84t-25 128.5q0 143 126 234t322 91q114 0 228 -40.5t180 -104.5l-184 -197
q-57 44 -108.5 64t-115.5 20q-52 0 -84 -18.5t-32 -48.5q0 -25 25 -40.5t65.5 -22t92.5 -14t106.5 -15.5t106.5 -29.5t92.5 -52t65.5 -86.5t25 -131q0 -149 -135.5 -244.5t-347.5 -95.5q-138 0 -264.5 49t-184.5 125z" />
    <glyph glyph-name="uni0162" unicode="&#x162;" 
d="M737 0h-71v-39q68 -27 110.5 -89.5t42.5 -139.5q0 -101 -72 -173.5t-172 -72.5q-95 0 -169 65.5t-74 169.5h180q0 -18 18.5 -35.5t42.5 -17.5q25 0 43.5 20t18.5 46t-18 43.5t-44 17.5h-92v205h-71v1083h-367v289h1061v-289h-367v-1083z" />
    <glyph glyph-name="uni0163" unicode="&#x163;" 
d="M1008 0h-207v-39q68 -27 110.5 -89.5t42.5 -139.5q0 -101 -71.5 -173.5t-171.5 -72.5q-95 0 -169.5 65.5t-74.5 169.5h180q0 -18 19 -35.5t43 -17.5q25 0 43 20t18 46t-17.5 43.5t-43.5 17.5h-93v219q-130 33 -208 129t-78 228v362h-269v291h269v305h323v-305h346v-291
h-346v-342q0 -44 30 -72t75 -28h250v-291z" />
    <glyph glyph-name="Tcaron" unicode="&#x164;" 
d="M944 1778h-309l-66 -86l-75 86h-291l260 -308h221zM43 1083v289h1061v-289h-367v-1083h-327v1083h-367z" />
    <glyph glyph-name="tcaron" unicode="&#x165;" 
d="M956 1100l158 428h-278l-117 -428h237zM1008 291v-291h-271q-179 0 -293 104t-114 267v362h-269v291h269v305h323v-305h346v-291h-346v-342q0 -44 30 -72t75 -28h250z" />
    <glyph glyph-name="Tbar" unicode="&#x166;" 
d="M1104 1083h-367v-274h150v-248h-150v-561h-327v561h-150v248h150v274h-367v289h1061v-289z" />
    <glyph glyph-name="tbar" unicode="&#x167;" 
d="M758 291h250v-291h-271q-179 0 -293 104t-114 267v16h-152v248h152v98h-269v291h269v305h323v-305h346v-291h-346v-98h152v-248h-152q1 -42 31.5 -69t73.5 -27z" />
    <glyph glyph-name="Umacron" unicode="&#x16a;" 
d="M850 1470v246h-545v-246h545zM428 1372v-928q0 -66 40.5 -107.5t104.5 -41.5q65 0 105.5 41.5t40.5 107.5v928h328v-948q0 -193 -133.5 -316.5t-340.5 -123.5t-340 123.5t-133 316.5v948h328z" />
    <glyph glyph-name="umacron" unicode="&#x16b;" 
d="M846 1133v245h-545v-245h545zM117 1024h321v-596q0 -58 38 -95.5t97 -37.5t97.5 37.5t38.5 95.5v596h321v-616q0 -186 -128 -305t-329 -119t-328.5 119t-127.5 305v616z" />
    <glyph glyph-name="Uring" unicode="&#x16e;" 
d="M573 1470q-95 0 -163 68.5t-68 163.5q0 98 67.5 165.5t163.5 67.5q97 0 164.5 -67.5t67.5 -165.5q0 -96 -68 -164t-164 -68zM573 1636q29 0 49.5 19.5t20.5 46.5q0 29 -20.5 49.5t-49.5 20.5q-28 0 -47.5 -20.5t-19.5 -49.5q0 -26 20 -46t47 -20zM428 1372v-928
q0 -66 40.5 -107.5t104.5 -41.5q65 0 105.5 41.5t40.5 107.5v928h328v-948q0 -193 -133.5 -316.5t-340.5 -123.5t-340 123.5t-133 316.5v948h328z" />
    <glyph glyph-name="uring" unicode="&#x16f;" 
d="M569 1133q-95 0 -163 68t-68 163q0 98 67.5 165.5t163.5 67.5q97 0 164.5 -67.5t67.5 -165.5q0 -96 -67.5 -163.5t-164.5 -67.5zM569 1298q29 0 49.5 19.5t20.5 46.5q0 29 -20.5 49.5t-49.5 20.5q-28 0 -47.5 -20.5t-19.5 -49.5q0 -26 20 -46t47 -20zM117 1024h321v-596
q0 -58 38 -95.5t97 -37.5t97.5 37.5t38.5 95.5v596h321v-616q0 -186 -128 -305t-329 -119t-328.5 119t-127.5 305v616z" />
    <glyph glyph-name="Uhungarumlaut" unicode="&#x170;" 
d="M408 1423l319 351l-166 149l-309 -348zM770 1423l320 351l-166 149l-310 -348zM428 1372v-928q0 -66 40.5 -107.5t104.5 -41.5q65 0 105.5 41.5t40.5 107.5v928h328v-948q0 -193 -133.5 -316.5t-340.5 -123.5t-340 123.5t-133 316.5v948h328z" />
    <glyph glyph-name="uhungarumlaut" unicode="&#x171;" 
d="M403 1085l320 351l-166 149l-309 -348zM766 1085l319 351l-165 149l-310 -348zM117 1024h321v-596q0 -58 38 -95.5t97 -37.5t97.5 37.5t38.5 95.5v596h321v-616q0 -186 -128 -305t-329 -119t-328.5 119t-127.5 305v616z" />
    <glyph glyph-name="Uogonek" unicode="&#x172;" 
d="M719 1372h328v-948q0 -185 -123.5 -307t-319.5 -133q-70 -40 -115 -94.5t-45 -100.5q0 -38 26.5 -62t66.5 -24q46 0 98 25l53 -115q-86 -39 -174 -39q-98 0 -161.5 57t-63.5 146q0 57 47.5 119t120.5 100q-161 32 -259 148.5t-98 279.5v948h328v-928q0 -66 40.5 -107.5
t104.5 -41.5q65 0 105.5 41.5t40.5 107.5v928z" />
    <glyph glyph-name="uogonek" unicode="&#x173;" 
d="M709 1024h321v-616q0 -164 -100.5 -278t-265.5 -140q-76 -39 -124 -96t-48 -105q0 -38 26 -62t66 -24q46 0 98 25l53 -115q-86 -39 -174 -39q-98 0 -161.5 57t-63.5 146q0 54 44 113.5t114 99.5q-170 23 -273.5 137.5t-103.5 280.5v616h321v-596q0 -58 38 -95.5t97 -37.5
t97.5 37.5t38.5 95.5v596z" />
    <glyph glyph-name="Wcircumflex" unicode="&#x174;" 
d="M942 1470l-260 308h-221l-260 -308h291l75 86l66 -86h309zM23 1372h307l65 -856l78 508h201l78 -508l65 856h309l-133 -1372h-336l-84 741l-84 -741h-335z" />
    <glyph glyph-name="wcircumflex" unicode="&#x175;" 
d="M942 1133l-260 307h-221l-260 -307h291l75 86l66 -86h309zM35 1024h293l71 -655l78 352h193l78 -352l73 655h291l-125 -1024h-301l-113 471l-112 -471h-301z" />
    <glyph glyph-name="Ycircumflex" unicode="&#x176;" 
d="M942 1470l-260 308h-221l-260 -308h291l75 86l66 -86h309zM33 1372h356l184 -430l185 430h356l-377 -772v-600h-327v600z" />
    <glyph glyph-name="ycircumflex" unicode="&#x177;" 
d="M942 1133l-260 307h-221l-260 -307h291l75 86l66 -86h309zM35 1024h336l202 -543l201 543h344l-416 -993q-85 -205 -224 -318t-318 -139l-101 291q115 11 207 85t131 195z" />
    <glyph glyph-name="Ydieresis" unicode="&#x178;" 
d="M547 1612q0 58 -40.5 99.5t-98.5 41.5t-99 -42t-41 -99q0 -59 41 -100.5t99 -41.5t98.5 41.5t40.5 100.5zM877 1612q0 58 -41.5 99.5t-100.5 41.5q-57 0 -97 -42t-40 -99q0 -59 40 -100.5t97 -41.5q60 0 101 41.5t41 100.5zM33 1372h356l184 -430l185 430h356l-377 -772
v-600h-327v600z" />
    <glyph glyph-name="Zacute" unicode="&#x179;" 
d="M481 1448l420 221l-125 219l-409 -219zM78 1083v289h991v-268l-620 -813h638v-291h-1028v270l621 813h-602z" />
    <glyph glyph-name="zacute" unicode="&#x17a;" 
d="M481 1110l420 221l-125 219l-409 -219zM119 743v281h905v-258l-508 -475h533v-291h-951v270l510 473h-489z" />
    <glyph glyph-name="Zdotaccent" unicode="&#x17b;" 
d="M573 1464q-83 0 -135.5 52t-52.5 135t52.5 134.5t135.5 51.5q84 0 136.5 -51.5t52.5 -134.5t-53 -135t-136 -52zM78 1083v289h991v-268l-620 -813h638v-291h-1028v270l621 813h-602z" />
    <glyph glyph-name="zdotaccent" unicode="&#x17c;" 
d="M573 1126q-83 0 -135.5 52t-52.5 135t52.5 134.5t135.5 51.5q84 0 136.5 -51.5t52.5 -134.5t-53 -135t-136 -52zM119 743v281h905v-258l-508 -475h533v-291h-951v270l510 473h-489z" />
    <glyph glyph-name="Zcaron" unicode="&#x17d;" 
d="M944 1778h-309l-66 -86l-75 86h-291l260 -308h221zM78 1083v289h991v-268l-620 -813h638v-291h-1028v270l621 813h-602z" />
    <glyph glyph-name="zcaron" unicode="&#x17e;" 
d="M944 1440h-309l-66 -86l-75 86h-291l260 -307h221zM119 743v281h905v-258l-508 -475h533v-291h-951v270l510 473h-489z" />
    <glyph glyph-name="florin" unicode="&#x192;" 
d="M821 1042q-42 0 -69 -28t-27 -72v-194h256v-291h-256v-467q0 -101 -33.5 -179.5t-91 -125.5t-128 -71t-148.5 -24h-162v334h162q28 0 48.5 18.5t20.5 47.5v952q0 202 115.5 316t312.5 114h160v-330h-160z" />
    <glyph glyph-name="Scommaaccent" unicode="&#x218;" 
d="M51 227l238 222q43 -68 117 -111t147 -43q67 0 109.5 33t42.5 84q0 42 -26.5 73.5t-70 50.5t-99 39t-114 37t-114 46.5t-99 66t-70 96.5t-26.5 137q0 189 132 310t335 121q131 0 264 -57.5t209 -147.5l-190 -230q-61 57 -136 90t-147 33q-51 0 -85 -27.5t-34 -70.5
q0 -31 21 -55t57 -39.5t82.5 -30t98 -30t102.5 -35t97.5 -50.5t82.5 -70.5t57 -100.5t21 -136q0 -197 -140 -322.5t-360 -125.5q-163 0 -304 68t-198 175zM555 -535l158 429h-279l-117 -429h238z" />
    <glyph glyph-name="scommaaccent" unicode="&#x219;" 
d="M100 158l199 178q52 -50 111 -72t139 -22q67 0 109 23t42 59q0 29 -25 46.5t-65.5 24.5t-92.5 15t-106.5 15.5t-106.5 27.5t-92.5 49.5t-65.5 84t-25 128.5q0 143 126 234t322 91q114 0 228 -40.5t180 -104.5l-184 -197q-57 44 -108.5 64t-115.5 20q-52 0 -84 -18.5
t-32 -48.5q0 -25 25 -40.5t65.5 -22t92.5 -14t106.5 -15.5t106.5 -29.5t92.5 -52t65.5 -86.5t25 -131q0 -149 -135.5 -244.5t-347.5 -95.5q-138 0 -264.5 49t-184.5 125zM541 -535l157 429h-278l-117 -429h238z" />
    <glyph glyph-name="uni021A" unicode="&#x21a;" 
d="M43 1083v289h1061v-289h-367v-1083h-327v1083h-367zM569 -535l158 429h-278l-117 -429h237z" />
    <glyph glyph-name="uni021B" unicode="&#x21b;" 
d="M1008 291v-291h-271q-179 0 -293 104t-114 267v362h-269v291h269v305h323v-305h346v-291h-346v-342q0 -44 30 -72t75 -28h250zM705 -535l157 429h-278l-117 -429h238z" />
    <glyph glyph-name="uni0237" unicode="&#x237;" 
d="M49 -145q475 105 475 567v311h-295v291h619v-625q0 -151 -37 -273t-117.5 -227.5t-214 -186.5t-321.5 -138z" />
    <glyph glyph-name="circumflex" unicode="&#x2c6;" horiz-adv-x="1228" 
d="M944 1169l-260 308h-221l-260 -308h291l75 86l66 -86h309z" />
    <glyph glyph-name="caron" unicode="&#x2c7;" horiz-adv-x="1228" 
d="M944 1477h-309l-66 -86l-75 86h-291l260 -308h221z" />
    <glyph glyph-name="breve" unicode="&#x2d8;" horiz-adv-x="1228" 
d="M573 1167q107 0 188 68t81 170v106l-183 -2v-79q0 -32 -26 -55t-60 -23t-59 23t-25 55v79h-182v-104q0 -102 79.5 -170t186.5 -68z" />
    <glyph glyph-name="dotaccent" unicode="&#x2d9;" horiz-adv-x="1228" 
d="M573 1161q-83 0 -135.5 52t-52.5 135t52.5 134.5t135.5 51.5q84 0 136.5 -51.5t52.5 -134.5t-53 -135t-136 -52z" />
    <glyph glyph-name="ring" unicode="&#x2da;" horiz-adv-x="1228" 
d="M573 1169q-95 0 -163 68.5t-68 163.5q0 98 67.5 165.5t163.5 67.5q97 0 164.5 -67.5t67.5 -165.5q0 -96 -68 -164t-164 -68zM573 1335q29 0 49.5 19.5t20.5 46.5q0 29 -20.5 49t-49.5 20q-28 0 -47.5 -20t-19.5 -49q0 -27 20 -46.5t47 -19.5z" />
    <glyph glyph-name="ogonek" unicode="&#x2db;" horiz-adv-x="1228" 
d="M582 -426q-99 0 -162.5 57t-63.5 146q0 63 56 129.5t141 101.5h168q-90 -38 -149.5 -101t-59.5 -118q0 -38 26 -62t66 -24q46 0 98 25l54 -115q-86 -39 -174 -39z" />
    <glyph glyph-name="tilde" unicode="&#x2dc;" horiz-adv-x="1228" 
d="M362 1169q16 28 49 49t68 21q23 0 50.5 -13.5t67 -26.5t91.5 -13q75 0 145.5 37t141.5 143l-207 125q-49 -76 -121 -76q-34 0 -93.5 25.5t-111.5 25.5q-78 0 -148.5 -43t-119.5 -123z" />
    <glyph glyph-name="hungarumlaut" unicode="&#x2dd;" horiz-adv-x="1228" 
d="M373 1122l319 351l-166 149l-309 -348zM735 1122l320 351l-166 149l-309 -348z" />
    <glyph glyph-name="gravecomb" unicode="&#x300;" horiz-adv-x="0" 
d="M-451 1145l115 221l-409 219l-125 -219z" />
    <glyph glyph-name="acutecomb" unicode="&#x301;" horiz-adv-x="0" 
d="M-696 1145l420 221l-125 219l-410 -219z" />
    <glyph glyph-name="uni0302" unicode="&#x302;" horiz-adv-x="0" 
d="M-203 1169l-260 308h-221l-260 -308h291l75 86l66 -86h309z" />
    <glyph glyph-name="tildecomb" unicode="&#x303;" horiz-adv-x="0" 
d="M-784 1169q16 28 48.5 49t67.5 21q23 0 50.5 -13.5t67 -26.5t91.5 -13q75 0 145.5 37t141.5 143l-207 125q-49 -76 -121 -76q-34 0 -93.5 25.5t-111.5 25.5q-78 0 -148.5 -43t-119.5 -123z" />
    <glyph glyph-name="uni0304" unicode="&#x304;" horiz-adv-x="0" 
d="M-301 1169v246h-545v-246h545z" />
    <glyph glyph-name="uni0306" unicode="&#x306;" horiz-adv-x="0" 
d="M-573 1167q107 0 187.5 68t80.5 170v106l-182 -2v-79q0 -32 -26 -55t-60 -23t-59 23t-25 55v79h-183v-104q0 -102 80 -170t187 -68z" />
    <glyph glyph-name="uni0307" unicode="&#x307;" horiz-adv-x="0" 
d="M-573 1161q-83 0 -136 52t-53 135t52.5 134.5t136.5 51.5q83 0 135.5 -51.5t52.5 -134.5t-52.5 -135t-135.5 -52z" />
    <glyph glyph-name="uni0308" unicode="&#x308;" horiz-adv-x="0" 
d="M-598 1311q0 58 -40.5 99.5t-98.5 41.5t-99 -42t-41 -99q0 -59 41 -100.5t99 -41.5t98.5 41.5t40.5 100.5zM-268 1311q0 58 -41.5 99.5t-100.5 41.5q-57 0 -97 -42t-40 -99q0 -59 40 -100.5t97 -41.5q60 0 101 41.5t41 100.5z" />
    <glyph glyph-name="uni030A" unicode="&#x30a;" horiz-adv-x="0" 
d="M-573 1169q-95 0 -163.5 68.5t-68.5 163.5q0 98 68 165.5t164 67.5q97 0 164 -67.5t67 -165.5q0 -96 -67.5 -164t-163.5 -68zM-573 1335q29 0 49 19.5t20 46.5q0 29 -20 49t-49 20q-28 0 -48 -20t-20 -49q0 -26 20 -46t48 -20z" />
    <glyph glyph-name="uni030B" unicode="&#x30b;" horiz-adv-x="0" 
d="M-774 1122l319 351l-166 149l-309 -348zM-412 1122l320 351l-166 149l-309 -348z" />
    <glyph glyph-name="uni030C" unicode="&#x30c;" horiz-adv-x="0" 
d="M-203 1477h-309l-66 -86l-75 86h-291l260 -308h221z" />
    <glyph glyph-name="uni0312" unicode="&#x312;" horiz-adv-x="0" 
d="M-551 1589l-158 -428h279l117 428h-238z" />
    <glyph glyph-name="uni0326" unicode="&#x326;" horiz-adv-x="0" 
d="M-580 -535l158 429h-278l-117 -429h237z" />
    <glyph glyph-name="uni0327" unicode="&#x327;" horiz-adv-x="0" 
d="M-573 -514q-95 0 -169.5 65.5t-74.5 169.5h180q0 -18 19 -35.5t43 -17.5q25 0 43 20t18 46t-17.5 43.5t-43.5 17.5h-93v232h185v-66q68 -27 110.5 -89.5t42.5 -139.5q0 -101 -71.5 -173.5t-171.5 -72.5z" />
    <glyph glyph-name="uni0328" unicode="&#x328;" horiz-adv-x="0" 
d="M-565 -426q-99 0 -162.5 57t-63.5 146q0 63 56 129.5t141 101.5h168q-90 -38 -149.5 -101t-59.5 -118q0 -38 26 -62t66 -24q47 0 99 25l53 -115q-86 -39 -174 -39z" />
    <glyph glyph-name="uni0335" unicode="&#x335;" horiz-adv-x="0" 
d="M-260 440h-627v248h627v-248z" />
    <glyph glyph-name="uni0336" unicode="&#x336;" horiz-adv-x="0" 
d="M-76 440h-995v248h995v-248z" />
    <glyph glyph-name="uni0337" unicode="&#x337;" horiz-adv-x="0" 
d="M-1040 449v305l725 385v-312z" />
    <glyph glyph-name="uni0338" unicode="&#x338;" horiz-adv-x="0" 
d="M-991 0h237l588 1518h-240z" />
    <glyph glyph-name="Pi" unicode="&#x3a0;" 
d="M59 0v1372h1028v-1372h-331v1083h-365v-1083h-332z" />
    <glyph glyph-name="uni03A9" unicode="&#x3a9;" 
d="M1104 891v-332q0 -148 -74 -268h72v-291h-502v375q78 8 127 65t49 142v288q0 92 -56.5 149.5t-146.5 57.5q-89 0 -145.5 -57.5t-56.5 -149.5v-288q0 -85 49 -142t127 -65v-375h-502v291h72q-74 120 -74 268v332q0 220 148.5 359t381.5 139q234 0 382.5 -139t148.5 -359z
" />
    <glyph glyph-name="uni03BC" unicode="&#x3bc;" 
d="M700 1024h330v-588q0 -188 -132.5 -320t-319.5 -132q-68 0 -123 14v-408h-330v1434h330v-588q0 -51 36 -86t87 -35t86.5 35t35.5 86v588z" />
    <glyph glyph-name="pi" unicode="&#x3c0;" 
d="M1047 326h59v-326l-59 -2q-106 -4 -197 48.5t-143 144t-52 198.5v307h-96l-137 -696h-340l141 696h-151v328h909v-635q0 -27 19.5 -45t46.5 -18z" />
    <glyph glyph-name="Wgrave" unicode="&#x1e80;" 
d="M666 1448l114 221l-409 219l-125 -219zM23 1372h307l65 -856l78 508h201l78 -508l65 856h309l-133 -1372h-336l-84 741l-84 -741h-335z" />
    <glyph glyph-name="wgrave" unicode="&#x1e81;" 
d="M666 1110l114 221l-409 219l-125 -219zM35 1024h293l71 -655l78 352h193l78 -352l73 655h291l-125 -1024h-301l-113 471l-112 -471h-301z" />
    <glyph glyph-name="Wacute" unicode="&#x1e82;" 
d="M481 1448l420 221l-125 219l-409 -219zM23 1372h307l65 -856l78 508h201l78 -508l65 856h309l-133 -1372h-336l-84 741l-84 -741h-335z" />
    <glyph glyph-name="wacute" unicode="&#x1e83;" 
d="M481 1110l420 221l-125 219l-409 -219zM35 1024h293l71 -655l78 352h193l78 -352l73 655h291l-125 -1024h-301l-113 471l-112 -471h-301z" />
    <glyph glyph-name="Wdieresis" unicode="&#x1e84;" 
d="M547 1612q0 58 -40.5 99.5t-98.5 41.5t-99 -42t-41 -99q0 -59 41 -100.5t99 -41.5t98.5 41.5t40.5 100.5zM877 1612q0 58 -41.5 99.5t-100.5 41.5q-57 0 -97 -42t-40 -99q0 -59 40 -100.5t97 -41.5q60 0 101 41.5t41 100.5zM23 1372h307l65 -856l78 508h201l78 -508
l65 856h309l-133 -1372h-336l-84 741l-84 -741h-335z" />
    <glyph glyph-name="wdieresis" unicode="&#x1e85;" 
d="M547 1274q0 58 -40.5 99.5t-98.5 41.5t-99 -42t-41 -99q0 -59 41 -100t99 -41t98.5 41t40.5 100zM877 1274q0 58 -41.5 99.5t-100.5 41.5q-57 0 -97 -42t-40 -99q0 -59 40 -100t97 -41q60 0 101 41t41 100zM35 1024h293l71 -655l78 352h193l78 -352l73 655h291
l-125 -1024h-301l-113 471l-112 -471h-301z" />
    <glyph glyph-name="Ygrave" unicode="&#x1ef2;" 
d="M666 1448l114 221l-409 219l-125 -219zM33 1372h356l184 -430l185 430h356l-377 -772v-600h-327v600z" />
    <glyph glyph-name="ygrave" unicode="&#x1ef3;" 
d="M666 1110l114 221l-409 219l-125 -219zM35 1024h336l202 -543l201 543h344l-416 -993q-85 -205 -224 -318t-318 -139l-101 291q115 11 207 85t131 195z" />
    <glyph glyph-name="endash" unicode="&#x2013;" 
d="M1020 455v319h-893v-319h893z" />
    <glyph glyph-name="emdash" unicode="&#x2014;" 
d="M1122 455v319h-1097v-319h1097z" />
    <glyph glyph-name="quoteleft" unicode="&#x2018;" 
d="M500 1516l-158 -469h320l116 469h-278z" />
    <glyph glyph-name="quoteright" unicode="&#x2019;" 
d="M647 1047l158 469h-320l-116 -469h278z" />
    <glyph glyph-name="quotesinglbase" unicode="&#x201a;" horiz-adv-x="1228" 
d="M586 -236l157 469h-319l-117 -469h279z" />
    <glyph glyph-name="quotedblleft" unicode="&#x201c;" 
d="M285 1516l-158 -469h319l117 469h-278zM737 1516l-157 -469h319l117 469h-279z" />
    <glyph glyph-name="quotedblright" unicode="&#x201d;" 
d="M408 1047l157 469h-319l-117 -469h279zM860 1047l158 469h-320l-116 -469h278z" />
    <glyph glyph-name="quotedblbase" unicode="&#x201e;" 
d="M408 -236l157 469h-319l-117 -469h279zM860 -236l158 469h-320l-116 -469h278z" />
    <glyph glyph-name="dagger" unicode="&#x2020;" 
d="M1061 1024v-289h-342v-1145h-289v1145h-342v289h342v348h289v-348h342z" />
    <glyph glyph-name="daggerdbl" unicode="&#x2021;" 
d="M1061 674v-291h-342v-793h-289v793h-342v291h342v61h-342v289h342v348h289v-348h342v-289h-342v-61h342z" />
    <glyph glyph-name="bullet" unicode="&#x2022;" 
d="M868 506q0 122 -87 207.5t-208 85.5t-206.5 -85.5t-85.5 -207.5q0 -121 85.5 -205t206.5 -84t208 84t87 205z" />
    <glyph glyph-name="ellipsis" unicode="&#x2026;" 
d="M573 356q82 0 134.5 -52t52.5 -134t-52.5 -134t-134.5 -52t-134 52t-52 134t52 134t134 52z" />
    <glyph glyph-name="perthousand" unicode="&#x2030;" horiz-adv-x="2293" 
d="M422 1389q132 0 216.5 -86.5t84.5 -221.5q0 -134 -84.5 -219.5t-216.5 -85.5t-215.5 85.5t-83.5 219.5q0 135 83.5 221.5t215.5 86.5zM422 1151q-49 0 -49 -70q0 -31 13 -50t36 -19q51 0 51 69q0 70 -51 70zM389 260l883 655l-137 187l-879 -658zM1147 596
q132 0 215.5 -86t83.5 -221q0 -134 -83.5 -219.5t-215.5 -85.5q-133 0 -217 85.5t-84 219.5q0 135 84 221t217 86zM1874 596q132 0 215.5 -86t83.5 -221q0 -134 -83.5 -219.5t-215.5 -85.5t-215.5 85.5t-83.5 219.5q0 135 83.5 221t215.5 86zM1147 358q-51 0 -51 -69
q0 -32 13.5 -51t37.5 -19t36.5 19t12.5 51q0 69 -49 69zM1874 358q-51 0 -51 -69q0 -32 13.5 -51t37.5 -19t37.5 19t13.5 51q0 69 -51 69z" />
    <glyph glyph-name="guilsinglleft" unicode="&#x2039;" 
d="M844 266l-240 252l238 250l-205 188l-422 -436l424 -448z" />
    <glyph glyph-name="guilsinglright" unicode="&#x203a;" 
d="M303 266l205 -194l424 448l-422 436l-205 -188l238 -250z" />
    <glyph glyph-name="fraction" unicode="&#x2044;" 
d="M164 0h264l555 1434h-266z" />
    <glyph glyph-name="Euro" unicode="&#x20ac;" 
d="M803 483l325 -59q-12 -195 -159.5 -317.5t-368.5 -122.5q-205 0 -347.5 109.5t-174.5 289.5h-78v268h70v68h-70v268h78q32 181 174 291.5t348 110.5q210 0 351.5 -110.5t166.5 -289.5l-325 -80q-10 76 -63 122t-130 46q-115 0 -172 -90h188v-268h-219v-68h219v-268h-186
q56 -88 170 -88q84 0 140 51t63 137z" />
    <glyph glyph-name="trademark" unicode="&#x2122;" 
d="M23 1204v168h540v-168h-174v-522h-192v522h-174zM608 682v690h189l69 -280l70 280h188v-690h-180v328l-43 -154h-70l-43 154v-328h-180z" />
    <glyph glyph-name="partialdiff" unicode="&#x2202;" 
d="M543 1372q222 0 363 -137t141 -367v-366q0 -238 -125 -378t-351 -140q-211 0 -343 140t-132 357q0 213 125.5 352.5t308.5 139.5q105 0 185 -41q-3 63 -46 108t-118 45h-248v287h240zM571 334q63 0 104.5 43.5t41.5 120.5q0 75 -41.5 118t-104.5 43q-64 0 -104.5 -42.5
t-40.5 -118.5q0 -77 40.5 -120.5t104.5 -43.5z" />
    <glyph glyph-name="uni2206" unicode="&#x2206;" 
d="M1081 289v-289h-1015v289l403 1083h207zM369 289h407l-203 596z" />
    <glyph glyph-name="product" unicode="&#x220f;" 
d="M23 1040v332h1101v-332h-100v-1450h-334v1450h-233v-1450h-334v1450h-100z" />
    <glyph glyph-name="summation" unicode="&#x2211;" 
d="M1065 -410v330h-576l406 565l-397 557h567v330h-971v-330l406 -557l-406 -565v-330h971z" />
    <glyph glyph-name="radical" unicode="&#x221a;" 
d="M39 731v293h291l205 -483l268 831h305v-289h-76l-370 -1083h-203l-328 731h-92z" />
    <glyph glyph-name="infinity" unicode="&#x221e;" 
d="M311 92q-117 0 -204 120.5t-87 289.5q0 170 87 291.5t206 121.5q138 0 260 -198q122 198 261 198q119 0 205.5 -121.5t86.5 -291.5q0 -169 -86.5 -289.5t-203.5 -120.5q-143 0 -263 199q-120 -199 -262 -199zM371 367q32 0 60.5 30.5t74.5 106.5q-41 71 -72.5 104
t-64.5 33q-38 0 -61 -39t-23 -98q0 -60 23.5 -98.5t62.5 -38.5zM776 367q39 0 62.5 38.5t23.5 98.5q0 59 -23 98t-61 39q-33 0 -64.5 -33t-72.5 -104q46 -76 74.5 -106.5t60.5 -30.5z" />
    <glyph glyph-name="integral" unicode="&#x222b;" 
d="M317 -412q102 0 187.5 42t140.5 131t55 210v985q0 52 37.5 88.5t91.5 36.5h146v291h-146q-109 0 -202.5 -47.5t-154 -144t-60.5 -224.5v-985q0 -38 -27.5 -64t-67.5 -26h-143v-293h143z" />
    <glyph glyph-name="approxequal" unicode="&#x2248;" 
d="M1040 629v248q-224 -136 -454 -74q-80 22 -122.5 31t-107 15.5t-123.5 -4.5t-124 -38v-250q33 17 69 27t75 12t68 2t69.5 -7t58.5 -10.5t55.5 -13t40.5 -10.5q102 -28 195 -23t161.5 28t138.5 67zM1040 301v250q-223 -139 -454 -76q-80 22 -122.5 31t-107 15.5
t-123.5 -4.5t-124 -38v-250q33 17 69 27t75 12t68 2t69.5 -7t58.5 -10.5t55.5 -13t40.5 -10.5q102 -28 195 -23t161.5 28t138.5 67z" />
    <glyph glyph-name="notequal" unicode="&#x2260;" 
d="M1061 602h-334l-31 -59h365v-283h-504l-166 -338l-215 107l115 231h-203v283h342l29 59h-371v281h510l154 311l213 -109l-101 -202h197v-281z" />
    <glyph glyph-name="lessequal" unicode="&#x2264;" 
d="M1034 330v278l-352 123l352 125v279l-909 -320v-166zM113 0h921v262h-921v-262z" />
    <glyph glyph-name="greaterequal" unicode="&#x2265;" 
d="M113 330l909 319v166l-909 320v-279l352 -125l-352 -123v-278zM1034 0v262h-921v-262h921z" />
    <glyph glyph-name="lozenge" unicode="&#x25ca;" 
d="M70 690l424 -690h159l424 690l-424 688h-159zM399 690l174 268l175 -268l-175 -268z" />
    <glyph glyph-name="fi" unicode="&#xfb01;" horiz-adv-x="2293" 
d="M1761 1161q-83 0 -135.5 52t-52.5 135t52.5 134.5t135.5 51.5q84 0 136.5 -51.5t52.5 -134.5t-53 -135t-136 -52zM365 1065q0 163 113 266t292 103h266v-291h-245q-43 0 -72 -27.5t-29 -71.5v-20h326v-291h-326l-2 -442h215v-291h-713v291h175v442h-267v291h267v41z
M1923 291h234v-291h-852v291h294v442h-274v291h598v-733z" />
    <glyph glyph-name="fl" unicode="&#xfb02;" horiz-adv-x="2293" 
d="M365 1065q0 163 113 266t292 103h266v-291h-245q-43 0 -72 -27.5t-29 -71.5v-20h326v-291h-326l-2 -442h215v-291h-713v291h175v442h-267v291h267v41zM1882 291h254v-291h-274q-188 0 -306 109t-118 282v752h-191v291h514v-1022q0 -51 35 -86t86 -35z" />
    <glyph glyph-name="i.loclTRK" 
d="M614 1126q-83 0 -135.5 52t-52.5 135t52.5 134.5t135.5 51.5q84 0 136.5 -51.5t52.5 -134.5t-53 -135t-136 -52zM178 0v291h275v442h-254v291h577v-733h213v-291h-811z" />
  </font>
</defs>
</svg>
